<?xml version="1.0" standalone="no"?>
<!DOCTYPE svg PUBLIC "-//W3C//DTD SVG 1.1//EN" "http://www.w3.org/Graphics/SVG/1.1/DTD/svg11.dtd" >
<svg xmlns="http://www.w3.org/2000/svg">
<metadata>Generated by IcoMoon</metadata>
<defs>
<font id="torent" horiz-adv-x="1024">
<font-face units-per-em="1024" ascent="960" descent="-64" />
<missing-glyph horiz-adv-x="1024" />
<glyph unicode="&#x20;" horiz-adv-x="512" d="" />
<glyph unicode="&#xe900;" glyph-name="machine" d="M192.623 540.014c16.894 19.916 27.165 45.944 27.165 74.411 0 1.383-0.054 2.752-0.102 4.125l596.256 177.407c18.104-36.983 55.294-62.424 98.164-62.424 60.598 0 109.894 50.797 109.894 113.234 0 12.033-9.745 21.786-21.786 21.786-12.043 0-21.788-9.753-21.788-21.786 0-38.415-29.746-69.659-66.32-69.659s-66.318 31.242-66.318 69.659 29.744 69.659 66.318 69.659c12.043 0 21.786 9.753 21.786 21.786s-9.743 21.788-21.786 21.788c-60.596 0-109.892-50.799-109.892-113.236 0-2.94 0.144-5.843 0.359-8.729l-594.601-176.914c-17.295 39.205-55.632 66.545-100.076 66.545-60.598 0.002-109.896-50.795-109.896-113.24 0-62.439 49.298-113.236 109.892-113.236 17.383 0 33.828 4.196 48.454 11.632l290.584-304.155h-448.93v-272.668h999.744v272.67h-490.561l-316.56 331.343zM43.574 614.427c0 38.413 29.744 69.668 66.318 69.668s66.32-31.257 66.32-69.668c0-38.417-29.746-69.661-66.32-69.661s-66.318 31.245-66.318 69.661zM956.169-20.426h-912.595v185.52h912.595v-185.52z" />
<glyph unicode="&#xe901;" glyph-name="sport-shoe" d="M1020.54 77.302c-9.886 64.472-40.396 103.768-88.232 113.64-27.696 5.718-48.714 11.136-68.148 17.562l-10.916 3.61c-0.006 0.002-0.012 0.004-0.020 0.006l-19.45 6.432c-8.828 2.918-16.12 9.030-20.538 17.214l-181.006 335.399c-2.504 4.642-7.232 7.654-12.496 7.968-12.874 0.758-25.486 2.964-37.642 6.486-37.72 36.132-62.506 148.96-68.974 190.214-0.326 2.090-1.088 4.092-2.23 5.87l-67.302 104.796c-0.020 0.030-0.044 0.058-0.064 0.090-11.712 19.12-31.19 31.7-53.538 34.532-22.938 2.906-45.622-4.784-62.236-21.1l-231.48-227.346c-0.446-0.438-0.858-0.896-1.24-1.374-0.484-0.374-0.952-0.778-1.398-1.218l-87.050-85.496c-2.88-2.828-4.52-6.684-4.554-10.722-0.036-4.036 1.532-7.92 4.36-10.8l54.152-55.136c-11.53-1.938-22.52-6.372-32.038-13.238-18.114-13.066-28.502-33.124-28.502-55.030v-324.451c0-0.626 0.048-1.24 0.124-1.846-0.076-0.606-0.124-1.222-0.124-1.848v-122.016c0-8.408 6.814-15.22 15.22-15.22h991.232c7.592 0 14.022 5.594 15.074 13.112 0.25 1.784 6.026 44.19-0.986 89.91zM786.452 221.311c1.616-2.996 3.45-5.83 5.466-8.508h-46.202l-21.354 38.362 49.818-7.114 12.272-22.74zM734.293 317.957l21.904-40.588-33.152 4.734 11.248 35.854zM698.561 384.169l15.558-28.828-17.21-54.86-15.734 28.266 17.386 55.422zM660.065 455.501l18.322-33.948-17.614-56.15-18.956 34.052 18.248 56.046zM646.527 328.409l-203.568 10.16-98.688 101.344 247.052-12.33 55.204-99.174zM599.517 475.447c0.406-0.174 0.812-0.35 1.216-0.524 10.53-4.53 21.076-9.052 29.022-12.426 0.176-0.076 0.332-0.142 0.508-0.216l-8.644-26.542-22.102 39.708zM568.913 557.821c0.72-0.282 1.458-0.504 2.204-0.672 12.39-3.764 25.184-6.39 38.256-7.718l30.726-56.936-0.378-1.158c-16.436 6.996-43.552 18.68-64.058 27.548l-24.632 45.516c5.84-2.48 11.814-4.66 17.882-6.58zM466.147 795.038l17.422-27.126c2.912-17.39 17.324-97.26 45.336-156.060-7.228 5.316-14.086 11.194-20.45 17.674-43.314 44.102-58.698 106.756-42.308 165.512zM486.737 608.197c3.938-4.008 8.034-7.824 12.262-11.46 0.186-0.438 0.39-0.872 0.62-1.298l60.86-112.45 13.392-24.058-260.795 13.016-63.442 65.148c-2.414 12.658-8.506 57.672 20.016 85.686l162.642 159.738c-3.678-21.938-3.776-44.404-0.136-66.648 6.694-40.9 25.57-78.132 54.582-107.674zM349.077 878.302c9.926 9.746 23.438 14.348 37.080 12.618 13.234-1.676 24.744-9.15 31.586-20.504l22.626-37.544c-0.578-0.426-1.144-0.88-1.672-1.4l-190.378-186.98c-22.658-22.254-29.82-50.62-31.176-74.040l-88.732 91.12 220.666 216.73zM106.696 640.247l492.407-505.657c26.17-26.874 62.694-42.29 100.208-42.29h149.864c8.406 0 15.22 6.812 15.22 15.22s-6.814 15.22-15.22 15.22h-149.864c-29.348 0-57.924 12.058-78.4 33.086l-146.758 150.708 189.824-9.474 59.494-106.88c2.686-4.826 7.776-7.82 13.298-7.82h109.486l8.348-2.76c20.592-6.808 42.66-12.504 71.552-18.472 43.918-9.066 59.95-53.394 65.144-94.446h-323.311c-29.174 0-57.63 11.938-78.074 32.752l-507.619 516.849 24.402 23.964zM30.44 439.661c0 12.184 5.636 22.958 15.87 30.344 12.208 8.806 28.626 11.032 43.914 5.952 0.746-0.248 1.5-0.416 2.252-0.544l34.172-34.794v-246.562c0-26.504 14.73-48.72 30.212-64.77l-126.418 1.020v309.353zM30.44 4.722v30.566h433.697c8.406 0 15.22 6.812 15.22 15.22s-6.814 15.22-15.22 15.22h-433.697v34.14l434.321-3.51 78.784-80.216c4.018-4.092 8.304-7.878 12.772-11.42h-525.877zM157.088 194.059v215.566l277.537-282.583-229.4 1.854c-15.044 9.268-48.138 35.784-48.138 65.164zM992.63 4.72h-349.297c-29.174 0-57.63 11.936-78.074 32.75l-78.956 80.39c-1.48 3.212-4.038 5.818-7.224 7.356l-440.309 448.321 21.808 21.418 507.619-516.845c26.128-26.604 62.5-41.864 99.79-41.864h325.457c0.252-12.556-0.244-23.576-0.814-31.526z" />
<glyph unicode="&#xe902;" glyph-name="skating" d="M1007.071 750.121l-1.737 1.737c-22.572 22.572-62.508 22.572-85.080 0l-90.288-92.025c-5.208-5.208-12.155-5.208-17.363 0l-126.752 118.070c-12.155 10.418-27.782 17.363-45.145 17.363h-189.26c-3.473 0-8.682-1.737-10.418-3.473l-159.742-152.797c-22.572-24.308-24.308-62.508-3.473-85.080 10.418-12.155 26.045-19.1 43.408-19.1s32.99 6.945 43.408 19.1l112.862 119.807h39.935l-263.922-295.175h-114.597c-12.875 0-24.656-3.083-34.727-8.58v95.396c0 19.1-15.627 34.727-34.727 34.727h-34.727c-19.1-0.002-34.727-15.629-34.727-34.729v-260.448c0-48.617 38.2-86.817 86.817-86.817 13.89 0 26.045 6.945 31.253 19.1s5.208 26.045-3.473 36.463c-6.945 8.682-10.418 19.1-10.418 31.253v43.306c10.070-5.496 21.851-8.58 34.727-8.58h190.997c5.208 0 10.418 1.737 12.155 6.945l125.015 133.697 104.18-109.388-31.253-168.423c-4.88-19.518-1.531-38.488 7.579-53.827h-96.133c-19.1 0-34.727-15.627-34.727-34.727v-34.727c0-19.1 15.627-34.727 34.727-34.727h260.448c48.617 0 86.817 38.198 86.817 86.817 0 13.89-6.945 26.045-19.1 31.253s-26.045 5.208-36.463-3.473c-8.682-6.945-19.1-10.418-31.253-10.418h-43.797c3.179 5.878 5.634 12.299 7.333 19.1l53.827 255.24c0 5.208-1.737 12.155-5.208 15.627l-144.115 144.115 114.599 114.599 79.872-79.872c22.572-22.572 60.772-22.572 83.343 0l149.323 149.323c22.572 22.576 22.572 60.776 0 83.347zM763.986 31.28c0-29.519-22.572-52.090-52.090-52.090h-260.45v34.727h260.448c19.1 0 36.463 6.947 52.092 17.363zM34.727 204.914v260.448h34.727v-260.448c0-19.1 6.945-36.463 17.363-52.090-29.519 0-52.090 22.572-52.090 52.090zM982.763 691.086l-149.323-149.323c-10.418-8.682-26.045-8.682-34.727 0l-92.025 92.025c-6.945 6.945-17.363 6.945-24.308 0l-138.907-138.907c-3.473-3.473-5.208-6.945-5.208-12.155 0-5.208 1.737-8.682 6.945-13.89l149.323-149.323-52.090-244.822c-3.473-8.682-10.418-17.363-19.1-22.572-8.682-3.473-19.1-5.208-29.519 0-15.627 6.945-22.572 24.308-19.1 41.672l32.99 177.105c0 5.208-1.737 12.155-5.208 15.627l-123.28 128.488c-3.473 3.473-6.945 5.208-12.155 5.208-5.208 0-8.682-1.737-12.155-5.208l-131.962-140.644h-184.046c-20.837 0-34.727 13.89-34.727 34.727 0 24.308 17.363 34.727 34.727 34.727h121.544c5.208 0 10.418 1.737 12.155 1.737l295.173 329.902c5.208 5.208 5.208 12.155 3.473 19.1s-8.682 10.418-15.627 10.418h-86.817c-3.473 0-8.682-1.737-12.155-5.208l-118.070-125.015c-3.473-5.208-10.418-8.682-17.363-8.682s-13.89 3.473-19.1 8.682c-8.682 10.418-8.682 26.045 1.737 36.463l154.533 147.589h184.050c6.945 0 15.627-3.473 20.837-8.682l126.752-118.070c19.1-17.363 48.617-15.627 65.98 1.737l90.288 92.025c8.682 8.682 26.045 8.682 34.727 0l1.737-1.737c8.684-8.686 8.684-24.312 0.002-32.994zM816.074 743.176c57.298 0 104.18 46.882 104.18 104.18s-46.88 104.18-104.18 104.18c-57.298 0-104.18-46.88-104.18-104.18 0.002-57.3 46.882-104.18 104.18-104.18zM816.074 916.81c38.2 0 69.453-31.253 69.453-69.453 0-38.198-31.253-69.453-69.453-69.453-38.198 0-69.453 31.253-69.453 69.453 0.002 38.198 31.255 69.453 69.453 69.453z" />
<glyph unicode="&#xe903;" glyph-name="shoe" d="M1021.617 434.92c0.141 2.312-0.106 4.501-0.812 6.62-1.589 9.179-3.654 18.517-6.355 28.067-1.377 4.89-3.319 9.567-5.031 13.469l-42.577 113.291c-5.825 15.481-19.612 26.496-36.010 28.738-16.434 2.189-32.639-4.66-42.383-18.005-21.853-29.832-54.651-47.696-86.548-46.513h-69.973l-65.348 72.992-2.895 2.577c-19.559 13.963-44.342 16.593-66.354 7.114-25.048-10.856-51.862-28.067-82.912-47.978-30.803-19.753-65.401-41.941-105.295-62.365-0.583-0.212-1.094-0.53-1.642-0.794-39.082-19.894-83.177-38.093-133.856-50.644-16.434-4.078-33.38-6.267-51.315-8.579l-137.263-0.671c-34.192 3.372-65.895-16.699-79.117-49.761-14.545-36.399-1.571-78.534 30.891-100.176l2.154-1.412c82.824-54.739 179.24-78.623 278.604-69.443 71.721 6.725 173.397 17.617 250.59 31.35 45.084 8.014 89.92 6.902 133.344-3.336l91.526-21.589 4.060-1.359c19.965-6.319 40.653-9.391 61.041-9.391 46.813 0 92.003 16.169 122.718 45.948 35.34 34.28 49.161 83.901 40.759 141.853zM968.872 391.301c-2.683-4.166-5.666-8.067-8.914-11.597-6.567-7.202-6.072-18.358 1.112-24.942 3.389-3.089 7.661-4.625 11.915-4.625 1.977 0 3.901 0.53 5.79 1.2-5.437-12.321-12.78-23.442-22.542-32.921-34.475-33.451-95.586-45.066-148.401-28.296l-98.287 23.707c-27.043 6.355-54.58 9.55-82.33 9.55-21.659 0-43.46-1.942-65.26-5.825-76.028-13.539-176.663-24.289-247.695-30.944-91.456-8.579-179.84 13.504-255.885 63.707l-2.012 1.342c-13.433 8.95-20.918 24.042-20.988 39.629 0.282-0.018 0.53-0.177 0.812-0.177 3.813 0 7.679 1.236 10.891 3.778 7.679 6.037 8.985 17.14 2.966 24.784-0.971 1.2-1.642 2.507-2.507 3.742 8.844 9.673 21.536 15.004 35.781 13.61h135.621l7.855 0.883c18.146 2.348 36.911 4.766 55.304 9.32 19.276 4.784 37.317 10.485 54.792 16.575l56.91-56.91c3.442-3.442 7.961-5.172 12.48-5.172s9.038 1.73 12.48 5.172c6.902 6.902 6.902 18.058 0 24.96l-45.684 45.684c13.38 5.56 26.249 11.35 38.605 17.387l70.379-70.379c3.442-3.442 7.961-5.172 12.48-5.172s9.038 1.73 12.48 5.172c6.902 6.902 6.902 18.058 0 24.96l-62.4 62.4c13.963 7.626 27.414 15.34 40.106 23.036l85.101-92.232c3.477-3.778 8.226-5.684 12.974-5.684 4.289 0 8.561 1.553 11.968 4.678 7.167 6.62 7.626 17.793 1.024 24.942l-80.547 87.307c6.178 3.919 12.339 7.855 18.235 11.633 29.761 19.082 55.463 35.587 77.864 45.278 10.044 4.342 21.218 3.354 30.379-2.454l74.421-83.142 85.101 0.018c42.418-1.642 87.025 21.73 115.692 60.935 3.089 4.237 7.379 4.131 9.144 3.883 1.712-0.247 5.896-1.306 7.732-6.178l42.93-114.139c1.359-3.177 2.789-6.372 3.76-9.797 2.418-8.561 4.201-16.822 5.596-24.89-0.035-0.194-0.071-0.388-0.124-0.583-0.971-4.307-0.088-8.526 1.853-12.145 0.918-8.314 1.43-16.416 1.218-24.13-7.449 2.383-15.781-0.088-20.176-6.937zM298.656 350.119c-5.596-0.159-11.368-0.282-17.281-0.318-9.744-0.053-17.599-7.996-17.546-17.758 0.053-9.709 7.943-17.546 17.652-17.546 0.035 0 0.071 0 0.106 0 6.161 0.035 12.18 0.159 18.023 0.318 9.744 0.282 17.423 8.385 17.176 18.129s-8.72 17.334-18.129 17.176zM367.288 356.085c-5.772-0.706-11.544-1.395-17.317-2.030-9.691-1.094-16.664-9.832-15.587-19.506 1.024-9.020 8.65-15.693 17.529-15.693 0.653 0 1.306 0.035 1.977 0.106 5.913 0.671 11.827 1.359 17.74 2.101 9.673 1.183 16.558 10.009 15.34 19.682-1.183 9.673-9.991 16.734-19.682 15.34zM99.452 382.281c-4.907 2.365-9.656 4.872-14.192 7.59-8.385 4.978-19.206 2.242-24.201-6.143-4.978-8.385-2.242-19.223 6.143-24.201 5.437-3.23 11.103-6.249 16.946-9.073 2.471-1.183 5.066-1.748 7.643-1.748 6.584 0 12.886 3.689 15.922 9.991 4.219 8.808 0.512 19.347-8.261 23.583zM436.749 365.759l-17.352-2.56c-9.656-1.395-16.346-10.344-14.934-20 1.271-8.791 8.808-15.11 17.44-15.11 0.847 0 1.695 0.053 2.56 0.194l17.564 2.577c9.638 1.447 16.275 10.45 14.81 20.088s-10.45 16.275-20.088 14.81zM229.901 351.672c-5.649 0.424-11.35 0.953-17.052 1.571-9.638 1.059-18.394-5.949-19.453-15.657-1.059-9.691 5.949-18.394 15.657-19.453 6.055-0.653 12.127-1.2 18.111-1.677 0.459-0.035 0.936-0.053 1.377-0.053 9.144 0 16.875 7.026 17.582 16.293 0.759 9.744-6.514 18.235-16.222 18.976zM162.488 361.346c-5.525 1.218-10.997 2.56-16.399 4.007-9.391 2.542-19.082-3.054-21.624-12.48-2.542-9.409 3.054-19.082 12.48-21.624 5.913-1.589 11.898-3.054 17.952-4.378 1.271-0.282 2.56-0.406 3.813-0.406 8.102 0 15.41 5.613 17.228 13.857 2.101 9.514-3.919 18.923-13.451 21.024zM723.437 372.59c-5.966 1.2-11.809 2.383-17.582 3.442-9.55 1.783-18.8-4.501-20.6-14.086-1.818-9.585 4.501-18.8 14.086-20.6 5.596-1.077 11.315-2.207 17.105-3.372 1.165-0.247 2.365-0.353 3.513-0.353 8.226 0 15.587 5.772 17.281 14.157 1.942 9.55-4.254 18.87-13.804 20.812zM859.888 349.625c-5.507 0.247-11.068 0.671-16.664 1.218-10.079 0.971-18.358-6.161-19.311-15.816-0.971-9.709 6.125-18.341 15.816-19.311 6.249-0.618 12.445-1.094 18.57-1.359 0.282-0.018 0.53-0.018 0.812-0.018 9.373 0 17.211 7.396 17.617 16.858 0.441 9.744-7.096 18.005-16.84 18.429zM507.146 375.573c-5.913-0.724-11.809-1.518-17.705-2.312-9.656-1.324-16.434-10.221-15.11-19.876 1.2-8.861 8.773-15.269 17.476-15.269 0.794 0 1.589 0.053 2.401 0.159 5.755 0.794 11.509 1.553 17.281 2.277 9.673 1.183 16.558 10.009 15.34 19.682s-9.938 16.752-19.682 15.34zM792.386 358.415c-5.702 1.094-11.421 2.207-17.14 3.336-9.673 2.012-18.87-4.289-20.777-13.839-1.906-9.567 4.289-18.852 13.839-20.777 5.843-1.165 11.703-2.33 17.546-3.407 1.112-0.212 2.189-0.318 3.283-0.318 8.332 0 15.746 5.913 17.317 14.386 1.836 9.603-4.484 18.817-14.069 20.618zM923.224 356.368c-4.784-1.624-9.744-2.913-14.863-3.936-9.55-1.906-15.763-11.209-13.839-20.777 1.677-8.402 9.056-14.192 17.281-14.192 1.13 0 2.312 0.106 3.477 0.353 6.725 1.342 13.168 3.054 19.206 5.066 9.232 3.124 14.21 13.133 11.103 22.383-3.089 9.214-12.992 14.157-22.365 11.103zM578.39 382.617c-5.966-0.406-11.915-0.847-17.864-1.324-9.726-0.812-16.946-9.32-16.152-19.047 0.777-9.214 8.473-16.205 17.582-16.205 0.477 0 0.971 0.018 1.465 0.053 5.772 0.477 11.544 0.918 17.334 1.289 9.726 0.653 17.087 9.091 16.434 18.8s-8.614 16.875-18.8 16.434zM651.275 383.517l-5.366 0.247c-4.395 0.159-8.791 0.265-13.204 0.318-9.303 0.847-17.74-7.679-17.864-17.44-0.124-9.744 7.696-17.74 17.44-17.864 4.166-0.053 8.332-0.159 12.48-0.282l4.254-0.212c0.371-0.018 0.759-0.035 1.13-0.035 9.232 0 16.999 7.184 17.599 16.54 0.653 9.709-6.725 18.111-16.469 18.729z" />
<glyph unicode="&#xe904;" glyph-name="robot" d="M979.767 674.178v56.915c0 9.161-7.425 16.587-16.587 16.587s-16.587-7.427-16.587-16.587v-42.835l-103.603 184.185 5.023 8.037c0.069 0.111 0.122 0.226 0.188 0.336 4.886 7.92 7.714 17.24 7.714 27.21 0 28.659-23.315 51.974-51.974 51.974-18.328 0-34.46-9.546-43.716-23.917-0.117-0.173-0.243-0.332-0.354-0.509l-176.933-283.093c-0.069-0.111-0.122-0.226-0.188-0.336-4.633-7.506-7.4-16.276-7.677-25.66l-36.738-232.676c-12.567-0.049-24.094-4.583-33.067-12.078l-38.644 244.754c-0.276 9.384-3.043 18.153-7.677 25.66-0.066 0.111-0.119 0.226-0.188 0.336l-176.933 283.093c-0.111 0.177-0.239 0.336-0.354 0.509-9.258 14.371-25.39 23.917-43.718 23.917-28.659 0-51.974-23.315-51.974-51.974 0-9.97 2.829-19.29 7.716-27.212 0.066-0.111 0.119-0.226 0.188-0.336l5.023-8.037-110.506-196.453c-3.141 0.595-6.376 0.92-9.687 0.92-28.659 0-51.974-23.315-51.974-51.974v-15.002l-16.842-50.528c-1.135-3.406-1.135-7.086 0-10.49l17.693-53.080c2.897-8.692 12.284-13.387 20.982-10.492 8.692 2.897 13.387 12.29 10.49 20.982l-15.946 47.834 12.164 36.492h46.863l12.164-36.492-15.946-47.834c-2.897-8.692 1.798-18.085 10.49-20.982 1.741-0.579 3.51-0.856 5.248-0.856 6.945 0 13.416 4.397 15.734 11.346l17.693 53.080c1.135 3.406 1.135 7.086 0 10.49l-16.84 50.53v15.002c0 13.361-5.069 25.556-13.383 34.772l101.635 180.684 143.973-230.351v-304.69h-107.266c-9.163 0-16.587-7.427-16.587-16.587v-248.812h-71.879c-28.659 0-51.974-23.315-51.974-51.974v-35.387c0-9.161 7.425-16.587 16.587-16.587h778.505c9.163 0 16.587 7.427 16.587 16.587v35.387c0 28.659-23.315 51.974-51.974 51.974h-71.879v248.812c0 9.161-7.425 16.587-16.587 16.587h-54.186v36.492c0 28.659-23.315 51.974-51.974 51.974h-1.106v216.223l143.973 230.349 101.635-180.684c-8.314-9.216-13.383-21.413-13.383-34.772v-139.335c0-10.366 8.433-18.799 18.799-18.799h16.587v-44.485c-9.262-5.629-15.482-15.787-15.482-27.394 0-17.682 14.387-32.069 32.069-32.069s32.069 14.387 32.069 32.069c0 11.607-6.221 21.763-15.482 27.394v44.488h16.587c10.366 0 18.799 8.433 18.799 18.799v139.335c0 22.86-14.84 42.305-35.387 49.245zM78.514 643.732c10.366 0 18.799-8.433 18.799-18.799v-1.106h-37.598v1.106c0 10.366 8.433 18.799 18.799 18.799zM627.006 643.732c10.366 0 18.799-8.433 18.799-18.799s-8.433-18.799-18.799-18.799-18.799 8.433-18.799 18.799 8.433 18.799 18.799 18.799zM636.744 675.978l125.585 200.936c7.63-10.178 18.905-17.466 31.87-19.936l-125.587-200.934c-7.63 10.18-18.905 17.466-31.868 19.934zM803.94 926.825c10.366 0 18.799-8.433 18.799-18.799s-8.433-18.799-18.799-18.799-18.799 8.433-18.799 18.799 8.433 18.799 18.799 18.799zM279.362 876.914l125.585-200.936c-12.963-2.468-24.238-9.753-31.868-19.932l-125.587 200.934c12.965 2.468 24.24 9.756 31.87 19.934zM395.888 624.933c0 10.366 8.433 18.799 18.799 18.799s18.799-8.433 18.799-18.799-8.433-18.799-18.799-18.799-18.799 8.433-18.799 18.799zM237.754 926.825c10.366 0 18.799-8.433 18.799-18.799s-8.433-18.799-18.799-18.799-18.799 8.433-18.799 18.799 8.433 18.799 18.799 18.799zM395.888 576.491c5.834-2.271 12.171-3.532 18.799-3.532 9.353 0 18.129 2.497 25.719 6.838l43.335-274.45h-87.854v271.143zM486.566 272.173v-36.492c0-28.659 23.315-51.974 51.974-51.974h54.186v-40.327c-15.333-5.18-27.478-17.322-32.657-32.657h-288.034v161.451h214.531zM628.112 39.948h-37.598v54.186c0 10.366 8.433 18.799 18.799 18.799s18.799-8.433 18.799-18.799v-54.186zM272.035 77.546h285.305v-37.598h-285.305v37.598zM893.512-12.026v-18.799h-745.33v18.799c0 10.366 8.433 18.799 18.799 18.799h707.732c10.364 0 18.799-8.433 18.799-18.799zM661.287 39.948v37.598h108.371v-37.598h-108.371zM769.659 272.173v-161.451h-111.101c-5.18 15.333-17.324 27.478-32.657 32.657v40.327h54.186c28.659 0 51.974 23.315 51.974 51.974v36.492h37.598zM698.886 341.84v-52.994c0-0.029-0.004-0.058-0.004-0.086s0.004-0.058 0.004-0.086v-52.994c0-10.366-8.433-18.799-18.799-18.799h-141.546c-10.366 0-18.799 8.433-18.799 18.799v106.16c0 10.366 8.433 18.799 18.799 18.799h13.918c0.022 0 0.046-0.004 0.069-0.004 0.040 0 0.080 0.004 0.119 0.004h127.44c10.364 0 18.799-8.433 18.799-18.799zM571.921 393.814l29.366 185.983c7.59-4.341 16.366-6.838 25.719-6.838 6.628 0 12.965 1.261 18.799 3.532v-182.677h-73.885zM981.978 553.054h-37.598v71.879c0 10.366 8.433 18.799 18.799 18.799s18.799-8.433 18.799-18.799v-71.879zM944.38 499.974v19.905h37.598v-19.905h-37.598zM573.927 323.041c-9.163 0-16.587-7.427-16.587-16.587v-35.387c0-9.161 7.425-16.587 16.587-16.587s16.587 7.427 16.587 16.587v35.387c0 9.161-7.427 16.587-16.587 16.587zM644.7 323.041c-9.163 0-16.587-7.427-16.587-16.587v-35.387c0-9.161 7.425-16.587 16.587-16.587s16.587 7.427 16.587 16.587v35.387c0 9.161-7.427 16.587-16.587 16.587zM326.22 148.32h106.16c9.163 0 16.587 7.427 16.587 16.587s-7.425 16.587-16.587 16.587h-106.16c-9.163 0-16.587-7.427-16.587-16.587s7.425-16.587 16.587-16.587zM326.22 201.4h106.16c9.163 0 16.587 7.427 16.587 16.587s-7.425 16.587-16.587 16.587h-106.16c-9.163 0-16.587-7.427-16.587-16.587s7.425-16.587 16.587-16.587z" />
<glyph unicode="&#xe905;" glyph-name="tool" d="M119.749 88.261c-43.11 0-88.863 15.323-103.815 44.081-16.019 30.796-15.999 64.835-15.923 208.081l0.010 33.238c0 120.915 40.377 215.955 64.51 272.736 7.479 17.61 15.218 35.816 15.218 41.323 0 14.672-4.265 26.626-7.834 34.084-3.619 7.539-5.451 15.593-5.451 23.953 0 22.701 13.596 42.87 34.64 51.389l16.164 6.548c6.653 2.688 13.651 4.050 20.799 4.050h541.246c6.913 0 12.514-5.601 12.514-12.514v-1.982h57.542c6.357 0 11.603-4.735 12.409-10.873h84.828c42.279 0 77.395-31.251 83.462-71.868h81.419c6.913 0 12.514-5.601 12.514-12.514s-5.601-12.514-12.514-12.514h-81.419c-6.067-40.617-41.183-71.868-83.462-71.868h-84.828c-0.801-6.137-6.052-10.873-12.409-10.873h-60.77l-4.73-15.678c-8.515-28.213-26.711-52.751-51.229-69.095l-55.689-37.128c-18.261-12.184-39.531-18.622-61.496-18.622h-225.691c-0.15-11.789-0.255-31.016 0.225-52.641 0.441-19.723 5.927-37.403 10.442-48.756 2.648-6.658 2.258-14.096-1.066-20.409-3.299-6.272-9.156-10.762-16.069-12.334l-34.775-7.889v-4.5c0-5.962-4.21-11.103-10.062-12.269l-26.14-5.226c0.105-20.103 0.556-66.006 2.363-103.905 2.283-47.895-0.591-88.648-59.209-102.173-11.163-2.583-23.332-3.849-35.721-3.849zM102.649 675.205c-2.728-9.506-7.974-21.85-15.087-38.6-23.382-55.024-62.512-147.12-62.512-262.944l-0.010-33.253c-0.075-134.896-0.095-171.153 13.095-196.522 12.229-23.517 68.594-37.353 111.699-27.402 37.088 8.56 42.264 25.76 39.841 76.599-2.398 50.448-2.428 114.703-2.428 115.348 0 5.962 4.21 11.103 10.062 12.269l26.175 5.236v148.792c0 6.913 5.601 12.514 12.514 12.514h279.448c3.804 0 7.584 0.25 11.318 0.741-6.758 0.18-12.174 5.717-12.174 12.509 0 6.913 5.601 12.514 12.514 12.514h37.443c3.694 0 7.018-1.602 9.306-4.15l44.892 29.93c19.703 13.13 34.31 32.843 41.153 55.504l6.888 22.806v165.612h-528.727c-3.925 0-7.764-0.746-11.413-2.223l-16.159-6.543c-11.548-4.67-19.002-15.738-19.002-28.188 0-4.58 1.006-8.995 2.988-13.13 3.644-7.589 7.824-18.742 9.521-32.392h334.933c6.913 0 12.514-5.601 12.514-12.514s-5.601-12.514-12.514-12.514h-336.279zM248.518 462.214v-116.365l28.373 6.432c-5.226 13.285-11.413 33.704-11.924 56.736-0.486 21.75-0.39 41.138-0.235 53.197h-16.214zM691.821 627.761h45.032v140.453h-45.032v-140.453zM761.882 638.633h84.723c32.728 0 59.354 26.626 59.354 59.354s-26.626 59.354-59.354 59.354h-84.723v-118.707zM564.553 530.858h-37.443c-6.913 0-12.514 5.601-12.514 12.514s5.601 12.514 12.514 12.514h37.443c6.913 0 12.514-5.601 12.514-12.514s-5.601-12.514-12.514-12.514zM564.553 573.743h-37.443c-6.913 0-12.514 5.601-12.514 12.514s5.601 12.514 12.514 12.514h37.443c6.913 0 12.514-5.601 12.514-12.514s-5.601-12.514-12.514-12.514zM564.553 616.623h-37.443c-6.913 0-12.514 5.601-12.514 12.514s5.601 12.514 12.514 12.514h37.443c6.913 0 12.514-5.601 12.514-12.514s-5.601-12.514-12.514-12.514zM564.553 659.507h-37.443c-6.913 0-12.514 5.601-12.514 12.514s5.601 12.514 12.514 12.514h37.443c6.913 0 12.514-5.601 12.514-12.514s-5.601-12.514-12.514-12.514zM564.553 702.382h-37.443c-6.913 0-12.514 5.601-12.514 12.514s5.601 12.514 12.514 12.514h37.443c6.913 0 12.514-5.601 12.514-12.514s-5.601-12.514-12.514-12.514zM564.553 745.267h-37.443c-6.913 0-12.514 5.601-12.514 12.514s5.601 12.514 12.514 12.514h37.443c6.913 0 12.514-5.601 12.514-12.514s-5.601-12.514-12.514-12.514z" />
<glyph unicode="&#xe906;" glyph-name="van" d="M702.705 247.949h-373.21c-9.051 0-16.398 7.346-16.398 16.398s7.346 16.398 16.398 16.398h373.21c9.051 0 16.398-7.346 16.398-16.398s-7.346-16.398-16.398-16.398zM240.685 159.139c-58.048 0-105.24 47.192-105.24 105.207 0 58.048 47.192 105.24 105.24 105.24 58.015 0 105.207-47.192 105.207-105.24 0-57.982-47.225-105.207-105.207-105.207zM240.685 336.791c-39.945 0-72.445-32.5-72.445-72.445s32.5-72.412 72.445-72.412 72.412 32.467 72.412 72.412-32.467 72.445-72.412 72.445zM791.514 159.139c-58.015 0-105.207 47.192-105.207 105.207 0 58.048 47.192 105.24 105.207 105.24 58.048 0 105.24-47.192 105.24-105.24 0-57.982-47.225-105.207-105.24-105.207zM791.514 336.791c-39.945 0-72.412-32.5-72.412-72.445s32.467-72.412 72.412-72.412 72.445 32.467 72.445 72.412-32.5 72.445-72.445 72.445zM702.836 247.949h-373.309c-9.051 0-16.398 7.346-16.398 16.398s7.346 16.398 16.398 16.398h373.309c9.051 0 16.398-7.346 16.398-16.398s-7.346-16.398-16.398-16.398zM945.586 247.949h-65.328c-9.051 0-16.398 7.346-16.398 16.398s7.346 16.398 16.398 16.398h65.328c25.154 0 45.618 20.464 45.618 45.618v63.328c0 23.35-9.511 46.176-26.105 62.672l-73.56 73.101c-1.377 1.377-2.492 2.984-3.345 4.755l-60.311 130.525c-12.167 26.335-38.764 43.323-67.722 43.323h-675.419c-28.63 0-51.948-23.317-51.948-51.948v-325.788c0-25.154 20.431-45.618 45.585-45.618h73.33c9.051 0 16.398-7.346 16.398-16.398s-7.346-16.398-16.398-16.398h-73.33c-43.224 0.033-78.381 35.189-78.381 78.446v325.756c0 46.733 38.010 84.743 84.743 84.743h675.419c41.716 0 79.988-24.465 97.533-62.344l59.064-127.869 71.494-71.035c22.727-22.563 35.78-53.915 35.78-85.924v-63.328c-0.033-43.257-35.222-78.414-78.446-78.414zM705.033 473.384h-472.35c-9.051 0-16.398 7.346-16.398 16.398s7.346 16.398 16.398 16.398h472.35c9.051 0 16.398-7.346 16.398-16.398s-7.346-16.398-16.398-16.398z" />
<glyph unicode="&#xe907;" glyph-name="vaction" d="M1020.174 453.586l-317.772 442.742c-3.878 5.404-10.030 8.438-16.41 8.492-0.060 0.002-0.096 0.012-0.16 0.012-0.044 0-0.092 0-0.138 0l-544.964-3.67c-9.408-0.064-17.55-6.552-19.714-15.706s2.216-18.604 10.598-22.868l413.186-210.288-203.942-400.728c-5.11-10.040-1.114-22.322 8.926-27.432 2.964-1.51 6.122-2.224 9.236-2.224 7.432 0 14.596 4.076 18.196 11.15l203.944 400.728 413.188-210.286c2.942-1.498 6.108-2.22 9.244-2.22 5.804 0 11.504 2.476 15.484 7.11 6.13 7.14 6.582 17.544 1.098 25.188zM442.214 750.286l-217.404 110.644 391.536 2.638-174.132-113.282zM484.188 728.926l183.126 119.132 11.468-218.168-194.594 99.036zM720.76 608.526l-7.616 144.908-3.288 62.544 228.304-318.096-217.4 110.644zM313.87 159.192c-10.038 5.11-22.322 1.114-27.432-8.926l-20.050-39.396c-5.11-10.040-1.112-22.322 8.926-27.432 2.964-1.51 6.124-2.224 9.236-2.224 7.432 0 14.596 4.076 18.196 11.15l20.050 39.396c5.11 10.040 1.112 22.322-8.926 27.432zM465.020 31.964h-444.622c-11.266 0-20.398-9.132-20.398-20.398s9.132-20.398 20.398-20.398h444.622c11.266 0 20.398 9.132 20.398 20.398s-9.132 20.398-20.398 20.398zM642.306 31.964h-56.282c-11.266 0-20.398-9.132-20.398-20.398s9.132-20.398 20.398-20.398h56.282c11.266 0 20.398 9.132 20.398 20.398s-9.132 20.398-20.398 20.398z" />
<glyph unicode="&#xe908;" glyph-name="billboard" d="M1000.833 940.704h-977.665c-12.795 0-23.167-10.374-23.167-23.167v-463.694c0-12.793 10.372-23.167 23.167-23.167h977.665c12.795 0 23.167 10.374 23.167 23.167v463.694c0 12.795-10.372 23.167-23.167 23.167zM977.665 477.010h-931.33v417.359h931.33v-417.359zM1000.833 402.427c-12.795 0-23.167-10.374-23.167-23.167v-18.087h-149.198v18.087c0 12.793-10.372 23.167-23.167 23.167s-23.167-10.374-23.167-23.167v-18.087h-149.198v18.087c0 12.793-10.372 23.167-23.167 23.167s-23.167-10.374-23.167-23.167v-18.087h-149.198v18.087c0 12.793-10.372 23.167-23.167 23.167s-23.167-10.374-23.167-23.167v-18.087h-149.198v18.087c0 12.793-10.372 23.167-23.167 23.167s-23.167-10.374-23.167-23.167v-18.087h-149.198v18.087c0 12.793-10.372 23.167-23.167 23.167s-23.167-10.374-23.167-23.167v-41.254c0-12.793 10.372-23.167 23.167-23.167h407.747v-336.375c0-12.793 10.372-23.167 23.167-23.167s23.167 10.374 23.167 23.167v336.375h69.502v-336.375c0-12.793 10.372-23.167 23.167-23.167s23.167 10.374 23.167 23.167v336.375h407.747c12.795 0 23.167 10.374 23.167 23.167v41.254c0 12.793-10.372 23.167-23.167 23.167z" />
<glyph unicode="&#xe909;" glyph-name="settings" d="M1006.933 686.933h-34.987c-3.772 53.043-24.832 101.274-57.702 139.162l19.439 19.439c6.673 6.673 6.673 17.459 0 24.132s-17.459 6.673-24.132 0l-19.439-19.439c-37.888 32.87-86.135 53.931-139.162 57.702v35.004c0 9.438-7.646 17.067-17.067 17.067s-17.067-7.629-17.067-17.067v-35.004c-53.043-3.772-101.274-24.832-139.162-57.702l-19.439 19.439c-6.673 6.673-17.459 6.673-24.132 0s-6.673-17.459 0-24.132l19.439-19.439c-32.87-37.888-53.931-86.135-57.702-139.162h-35.021c-9.421 0-17.067-7.629-17.067-17.067s7.646-17.067 17.067-17.067h35.004c3.772-53.043 24.832-101.274 57.702-139.162l-19.439-19.439c-1.911-1.911-3.123-4.198-3.925-6.588-19.797 17.954-41.847 33.382-65.809 45.739l12.083 27.187c3.823 8.619-0.051 18.705-8.67 22.528-8.636 3.806-18.688-0.068-22.528-8.67l-12.1-27.221c-33.894 12.902-70.485 20.292-108.851 20.292-33.246 0-65.195-5.478-95.215-15.292l-8.346 21.47c-3.413 8.789-13.329 13.158-22.084 9.711-8.789-3.396-13.141-13.295-9.728-22.084l8.397-21.623c-62.976-28.74-114.517-78.012-146.108-139.349l-27.187 12.083c-8.619 3.806-18.688-0.068-22.528-8.67-3.823-8.619 0.051-18.705 8.67-22.528l27.221-12.083c-12.902-33.894-20.292-70.485-20.292-108.834 0-33.246 5.478-65.212 15.292-95.215l-21.47-8.346c-8.789-3.413-13.141-13.295-9.728-22.084 2.628-6.758 9.079-10.889 15.923-10.889 2.048 0 4.147 0.358 6.178 1.161l21.623 8.397c28.74-62.976 78.012-114.534 139.349-146.125l-12.083-27.187c-3.823-8.619 0.051-18.705 8.67-22.528 2.236-0.99 4.591-1.451 6.912-1.451 6.537 0 12.783 3.789 15.616 10.138l12.1 27.221c33.877-12.919 70.468-20.292 108.817-20.292 33.246 0 65.195 5.478 95.215 15.292l8.346-21.47c2.628-6.758 9.079-10.889 15.906-10.889 2.065 0 4.147 0.358 6.178 1.161 8.789 3.396 13.141 13.295 9.728 22.084l-8.397 21.623c62.976 28.74 114.517 78.012 146.108 139.349l27.187-12.083c2.253-1.007 4.608-1.468 6.929-1.468 6.537 0 12.783 3.789 15.616 10.138 3.823 8.619-0.051 18.705-8.67 22.528l-27.221 12.083c12.902 33.894 20.275 70.485 20.275 108.851 0 33.246-5.478 65.212-15.292 95.215l21.47 8.346c8.789 3.413 13.141 13.295 9.728 22.084-3.396 8.789-13.227 13.175-22.084 9.711l-21.623-8.397c-13.244 29.030-30.874 55.552-52.053 78.899 2.389 0.819 4.676 2.031 6.588 3.925l19.439 19.439c37.888-32.87 86.135-53.931 139.162-57.702v-34.987c0-9.438 7.646-17.067 17.067-17.067s17.067 7.629 17.067 17.067v35.004c53.043 3.772 101.274 24.832 139.162 57.702l20.446-20.446c3.328-3.328 7.697-5.001 12.066-5.001s8.738 1.673 12.066 5.001c6.673 6.673 6.673 17.459 0 24.132l-20.446 20.446c32.87 37.888 53.931 86.135 57.702 139.162h35.004c9.421 0 17.067 7.629 17.067 17.067s-7.629 17.067-17.067 17.067zM324.267 533.333c33.434 0 65.331-6.332 94.976-17.374l-83.797-188.553c-3.652 0.597-7.356 1.126-11.179 1.126-37.649 0-68.267-30.618-68.267-68.267 0-2.714 0.495-5.291 0.802-7.936l-192.666-74.923c-8.346 26.146-12.937 53.965-12.937 82.859 0 150.562 122.505 273.067 273.067 273.067zM292.591 247.774c-0.017 0.051 0 0.102-0.034 0.154-0.017 0.017-0.034 0.034-0.051 0.068-1.468 3.823-2.372 7.936-2.372 12.271 0 18.825 15.309 34.133 34.133 34.133 4.762 0 9.284-0.99 13.414-2.765 0.154-0.068 0.256-0.222 0.41-0.29 0.068-0.034 0.137-0.017 0.205-0.034 11.827-5.376 20.105-17.237 20.105-31.044 0-18.825-15.309-34.133-34.133-34.133-14.404 0-26.675 8.994-31.676 21.641zM76.749 145.698l192.29 74.786c12.407-17.186 32.478-28.484 55.228-28.484 2.714 0 5.291 0.495 7.936 0.802l74.923-192.666c-26.146-8.346-53.965-12.937-82.859-12.937-109.619 0-204.1 65.075-247.518 158.498zM438.852 12.732l-74.786 192.29c17.169 12.425 28.467 32.478 28.467 55.245 0 21.589-10.274 40.636-25.958 53.163l83.9 188.757c87.159-45.67 146.859-136.892 146.859-241.92 0-109.619-65.058-204.1-158.481-247.535zM733.867 465.067c-112.93 0-204.8 91.87-204.8 204.8s91.887 204.8 204.8 204.8 204.8-91.87 204.8-204.8-91.87-204.8-204.8-204.8zM733.867 738.133c-37.649 0-68.267-30.618-68.267-68.267s30.618-68.267 68.267-68.267 68.267 30.618 68.267 68.267-30.618 68.267-68.267 68.267zM733.867 635.733c-18.825 0-34.133 15.309-34.133 34.133s15.309 34.133 34.133 34.133 34.133-15.309 34.133-34.133-15.309-34.133-34.133-34.133z" />
<glyph unicode="&#xe90a;" glyph-name="megaphone" d="M934.175 906.105c-49.529 0-89.825-40.295-89.825-89.825v-40.744l-701.278-222.352c-3.288 36.612-33.774 65.482-71.213 65.482-39.631 0-71.86-32.229-71.86-71.86v-197.614c0-39.631 32.229-71.86 71.86-71.86 37.439 0 67.925 28.87 71.213 65.482l60.506-19.187c-9.090-8.174-16.402-18.504-20.444-30.936-5.892-18.216-4.33-37.672 4.419-54.811 8.731-17.139 23.588-29.822 41.786-35.696l256.359-83.052c7.24-2.353 14.695-3.503 22.097-3.503 11.228 0 22.384 2.659 32.678 7.923 17.139 8.731 29.822 23.588 35.714 41.786 4.222 13.060 4.473 26.75 1.132 39.774l267.030-84.651v-40.744c0-49.529 40.295-89.825 89.825-89.825s89.825 40.295 89.825 89.825v736.561c0 49.529-40.295 89.825-89.825 89.825zM542.037 176.442c-2.946-9.090-9.306-16.51-17.875-20.875-8.569-4.383-18.306-5.156-27.361-2.246l-256.377 83.052c-9.072 2.946-16.492 9.288-20.857 17.875-4.383 8.587-5.192 18.306-2.246 27.361 4.922 15.198 19.061 24.863 34.223 24.863 3.647 0 7.366-0.557 11.012-1.743l256.377-83.052c18.845-6.108 29.211-26.39 23.103-45.236zM107.789 349.193c0-19.815-16.115-35.93-35.93-35.93s-35.93 16.115-35.93 35.93v197.614c0 19.815 16.115 35.93 35.93 35.93s35.93-16.115 35.93-35.93v-197.614zM143.719 380.308v135.366l700.632 222.154v-579.692l-700.632 222.172zM988.070 79.719c0-29.714-24.181-53.895-53.895-53.895s-53.895 24.181-53.895 53.895v736.561c0 29.714 24.181 53.895 53.895 53.895s53.895-24.181 53.895-53.895v-736.561z" />
<glyph unicode="&#xe90b;" glyph-name="magic-wand" d="M561.23 572.314c0 0-0.018 0-0.018-0.018 0 0-0.018-0.018-0.018-0.018l-559.529-559.511 76.767-76.748 729.87 729.888-76.748 76.748-170.323-170.341zM78.413-12.834l-25.583 25.601 521.155 521.155 25.583-25.583-521.155-521.173zM625.169 533.921l-25.583 25.583 131.967 131.967 25.583-25.583-131.967-131.967zM732.855 797.167c9.987 0 18.093 8.087 18.093 18.093v126.648c0 10.005-8.105 18.093-18.093 18.093s-18.093-8.087-18.093-18.093v-126.648c0-10.005 8.105-18.093 18.093-18.093zM732.855 543.872c-9.987 0-18.093-8.087-18.093-18.093v-126.648c0-10.005 8.105-18.093 18.093-18.093s18.093 8.087 18.093 18.093v126.648c0 10.005-8.105 18.093-18.093 18.093zM1004.243 688.612h-126.648c-9.987 0-18.093-8.087-18.093-18.093s8.105-18.093 18.093-18.093h126.648c9.987 0 18.093 8.087 18.093 18.093s-8.105 18.093-18.093 18.093zM461.468 652.427h126.648c9.987 0 18.093 8.087 18.093 18.093s-8.105 18.093-18.093 18.093h-126.648c-9.987 0-18.093-8.087-18.093-18.093s8.105-18.093 18.093-18.093zM841.41 760.982c4.632 0 9.263 1.773 12.791 5.301l89.558 89.558c7.074 7.074 7.074 18.509 0 25.583s-18.509 7.074-25.583 0l-89.558-89.558c-7.074-7.074-7.074-18.509 0-25.583 3.528-3.528 8.16-5.301 12.791-5.301zM854.202 574.756c-7.074 7.074-18.509 7.074-25.583 0s-7.074-18.509 0-25.583l89.558-89.558c3.528-3.528 8.16-5.301 12.791-5.301s9.263 1.773 12.791 5.301c7.074 7.074 7.074 18.509 0 25.583l-89.558 89.558zM611.509 766.283c3.528-3.528 8.16-5.301 12.791-5.301s9.263 1.773 12.791 5.301c7.074 7.074 7.074 18.509 0 25.583l-89.558 89.558c-7.074 7.074-18.509 7.074-25.583 0s-7.074-18.509 0-25.583l89.558-89.558z" />
<glyph unicode="&#xe90c;" glyph-name="tire" d="M989.866 451.414c-0.010 1.706-0.054 3.4-0.076 5.102-0.026 2.33-0.054 4.658-0.104 6.98-0.012 0.574-0.032 1.146-0.046 1.72-3.258 139.704-45.978 265.682-112.824 355.56-59.422 80.32-137.928 132.11-224.87 139.224-1.706 0-1.706 0-3.414 0-1.22-0.108-2.43-0.266-3.646-0.396-4.454 0.236-8.924 0.396-13.42 0.396h-238.932c-88.766 0-169.97-46.344-232.564-122.83-1.78-1.522-3.252-3.352-4.362-5.42-74.482-94.002-121.474-231.368-121.474-383.75 0-281.6 160.426-512 358.4-512h238.934c4.868 0 9.704 0.18 14.524 0.456 1.416-0.154 2.828-0.33 4.248-0.456 163.84 13.654 300.374 180.906 332.8 411.306 0.188 1.782 0.372 3.588 0.56 5.382 4.098 30.906 6.266 62.76 6.266 95.312v3.414zM425.4 179.296c-0.362 1.982-1.12 3.848-2.22 5.506-30.242 75.54-47.714 165.992-47.714 263.196 0 251.962 118.968 458.652 270.564 477.362 172.428-11.276 309.704-221.694 309.704-477.36 0-255.682-137.292-466.11-309.734-477.364-92.68 11.31-172.216 91.374-220.6 208.66zM89.504 278.036c3.73 1.166 7.46 3.638 11.19 6.124l22.186 34.134 35.84-35.84c6.826-6.826 17.066-6.826 23.894 0l39.254 39.254 40.96-40.96c6.826-6.826 17.066-6.826 23.894 0l40.96 40.96 28.046-25.094c5.95-30.448 13.646-59.692 22.928-87.432l-30.492 15.246c-8.534 5.12-17.066 1.706-22.186-5.12l-22.186-34.134-35.84 35.84c-6.826 6.826-17.066 6.826-23.894 0l-39.258-39.254-39.254 39.254c-6.826 6.826-17.066 6.826-23.894 0l-24.64-24.64c-10.848 25.712-20.086 53.034-27.508 81.662zM68.34 439.6l42.594-24.028c6.826-3.414 15.36-1.706 20.48 3.414l39.254 39.254 40.96-39.254c6.826-6.826 17.066-6.826 23.894 0l40.96 40.96 65.326-39.5c0.822-24.544 2.722-48.64 5.652-72.154l-12.952 10.96c-6.826 5.12-17.066 3.414-22.186-1.706l-39.254-39.254-39.254 39.254c-6.826 6.826-17.066 6.826-23.894 0l-39.254-39.254-39.254 39.254c-3.414 3.414-8.534 5.12-13.654 5.12s-10.24-3.414-13.654-6.826l-23.974-35.96c-7.232 38.23-11.304 78.356-11.79 119.72zM124.090 715.708l38.042-25.362c5.12-3.414 13.654-3.414 18.774 0l40.96 27.306 42.666-29.014c5.12-3.414 13.654-3.414 18.774 0l42.666 29.014 54.382-26.414c-8.974-26.146-16.546-53.632-22.56-82.21l-21.584 21.584c-6.826 6.826-17.066 6.826-23.894 0l-39.254-39.254-39.254 39.254c-6.826 6.826-17.066 6.826-23.894 0l-39.248-39.252-39.254 39.254c-3.414 3.414-6.826 5.12-11.946 5.12s-8.534-1.706-11.946-5.12l-20.072-20.766c9.238 37.686 21.602 73.206 36.642 105.86zM179.044 807.352l107.676 31.474 44.374-29.014c5.12-3.414 13.654-3.414 18.774 0l42.666 29.014 47.602-23.122c-18.306-28.034-34.51-59.412-48.234-93.47l-62.514 31.258c-5.12 1.706-11.946 1.706-17.066-1.706l-40.96-27.306-40.96 27.306c-5.12 3.414-13.654 3.414-18.774 0l-40.96-27.306-31.116 22.040c11.938 21.934 25.154 42.3 39.492 60.832zM281.6 495.786c-6.826 3.414-15.36 1.706-20.48-3.414l-39.254-39.254-39.254 39.254c-6.826 6.826-17.066 6.826-23.894 0l-42.666-42.666-47.176 27.162c1.040 25.522 3.444 50.516 7.114 74.83 2.118 0.854 4.234 2.126 5.93 3.82l37.546 39.254 39.254-39.252c6.826-6.826 17.066-6.826 23.894 0l39.254 39.254 39.254-39.254c6.826-6.826 17.066-6.826 23.894 0l39.254 39.254 22.186-22.186c1.272-1.272 2.664-2.306 4.128-3.104-5.466-35.296-8.608-71.97-9.156-109.592l-59.828 35.894zM548.7 925.866c-32.708-20.106-62.784-48.292-89.302-82.926l-60.038 30.020c-5.12 1.706-11.946 1.706-17.066-1.706l-40.96-27.306-40.96 27.306c-5.12 3.414-10.24 3.414-15.36 3.414l-59.142-16.898c48.694 43.19 105.698 68.098 166.662 68.098h156.166zM132.1 163.674l21.5 21.5 39.254-39.254c6.826-6.826 17.066-6.826 23.894 0l39.252 39.254 39.254-39.254c3.414-3.414 6.826-5.12 11.946-5.12 6.826 0 11.946 3.414 13.654 8.534l25.6 39.254 49.292-24.646c12.836-30.308 27.678-58.35 44.258-83.654l-32.112-21.408-40.96 27.306c-5.12 3.414-13.654 3.414-18.774 0l-40.958-27.306-40.96 27.306c-5.12 3.414-13.654 3.414-18.774 0l-42.176-28.118c-28.012 29.312-52.732 65.004-73.19 105.606zM392.534-29.866c-59.274 0-114.806 23.544-162.596 64.544l26.062 17.376 42.666-27.306c5.12-3.414 13.654-3.414 18.774 0l40.96 27.306 39.254-29.014c5.12-3.414 13.654-3.414 18.774 0l43.63 29.086c26.49-34.236 56.534-62.082 89.234-81.994h-156.758zM665.6 823.466c-88.362 0-162.44-98.868-191.554-240.662-0.172-0.832-0.344-1.666-0.512-2.5-0.78-3.886-1.532-7.798-2.246-11.744-0.244-1.352-0.474-2.712-0.71-4.068-0.482-2.774-0.946-5.562-1.394-8.364-0.3-1.87-0.598-3.74-0.88-5.62-0.472-3.13-0.92-6.28-1.348-9.446-0.258-1.906-0.508-3.816-0.75-5.728-0.36-2.846-0.7-5.708-1.026-8.582-0.262-2.318-0.51-4.642-0.748-6.972-0.268-2.614-0.524-5.238-0.762-7.874-0.156-1.718-0.314-3.436-0.458-5.16-0.316-3.806-0.602-7.632-0.856-11.478-0.094-1.432-0.176-2.87-0.262-4.306-0.204-3.39-0.384-6.796-0.54-10.216-0.044-0.994-0.1-1.982-0.14-2.978-0.178-4.28-0.306-8.588-0.406-12.912-0.026-1.108-0.046-2.214-0.068-3.324-0.084-4.492-0.142-9-0.142-13.534 0-4.536 0.058-9.042 0.142-13.534 0.020-1.108 0.042-2.216 0.068-3.324 0.1-4.324 0.23-8.63 0.406-12.912 0.040-0.994 0.096-1.984 0.14-2.978 0.156-3.42 0.336-6.824 0.54-10.214 0.086-1.436 0.168-2.874 0.262-4.308 0.256-3.846 0.54-7.672 0.856-11.478 0.142-1.724 0.302-3.442 0.458-5.162 0.24-2.634 0.494-5.256 0.762-7.87 0.238-2.33 0.486-4.656 0.748-6.976 0.326-2.872 0.666-5.734 1.026-8.58 0.242-1.914 0.492-3.822 0.75-5.728 0.428-3.164 0.876-6.312 1.348-9.44 0.284-1.882 0.582-3.754 0.882-5.626 0.448-2.802 0.912-5.588 1.392-8.36 0.236-1.358 0.466-2.718 0.71-4.070 0.712-3.946 1.464-7.858 2.244-11.742 0.168-0.836 0.34-1.67 0.512-2.504 29.112-141.794 103.192-240.66 191.554-240.66 114.346 0 204.8 165.546 204.8 375.466s-90.452 375.468-204.798 375.468zM497.206 394.022c-0.088 1.054-0.186 2.104-0.27 3.16-0.124 1.566-0.23 3.14-0.344 4.712-0.158 2.214-0.308 4.43-0.442 6.654-0.076 1.256-0.156 2.512-0.224 3.77-0.19 3.468-0.362 6.944-0.498 10.436-0.024 0.634-0.040 1.274-0.064 1.908-0.11 3.084-0.198 6.178-0.266 9.28-0.022 0.996-0.042 1.99-0.060 2.988-0.062 3.68-0.106 7.366-0.106 11.068 0 3.224 0.038 6.44 0.078 9.654 0.948 63.66 11.228 123.744 28.12 174.84 25.062-42.756 40.070-110.282 40.070-184.492s-15.008-141.736-40.068-184.494c-12.912 39.058-21.958 83.368-25.926 130.516zM665.6 106.666c-50.198 0-96.342 46.592-127.96 118.8 36.148 44.42 59.692 129.050 59.692 222.534s-23.546 178.114-59.692 222.534c31.616 72.208 77.76 118.8 127.96 118.8 92.16 0 170.666-157.014 170.666-341.334s-78.506-341.334-170.666-341.334z" />
<glyph unicode="&#xe90d;" glyph-name="bicycle" d="M836.773 491.865c-16.315 0-32.078-2.311-47.177-6.259l-97.024 249.986h122.162c11.877 0 21.503 9.63 21.503 21.503 0 11.877-9.628 21.503-21.503 21.503h-150.522c-0.461 0-6.698 0-10.823-1.46-11.204-3.96-16.566-16.758-12.263-27.826l28.274-72.846h-270.84l-10.447 32.937h42.923c11.875 0 21.505 9.628 21.505 21.503s-9.63 21.503-21.505 21.503h-144.614c-11.875 0-21.503-9.628-21.503-21.503s9.628-21.503 21.503-21.503h56.573l19.508-61.498-100.219-171.865c-23.005 10.11-48.361 15.825-75.053 15.825-103.243 0-187.231-83.988-187.231-187.233s83.988-187.231 187.231-187.231c95.957 0 175.177 72.595 185.887 165.728h37.231c9.145-28.767 36.089-49.673 67.849-49.673 39.246 0 71.179 31.927 71.179 71.175 0 18.53-7.182 35.382-18.835 48.068l159.026 271.795 59.909-154.356c-59.359-31.439-99.928-93.794-99.928-165.508 0-103.245 83.992-187.231 187.225-187.231 103.241 0 187.227 83.988 187.227 187.231 0 103.241-83.982 187.233-187.227 187.233zM380.047 592.609l70.538-222.375c-19.067-8.053-33.914-24.198-40.235-44.101h-37.231c-6.017 52.3-33.694 97.976-73.771 128.086l80.699 138.389zM329.659 326.135h-104.995l52.907 90.753c27.509-22.19 46.598-54.255 52.088-90.753zM187.233 160.408c-79.525 0-144.223 64.702-144.223 144.225 0 79.527 64.698 144.225 144.223 144.225 18.795 0 36.718-3.727 53.202-10.301l-71.776-123.089c-3.884-6.657-3.906-14.871-0.074-21.549 3.833-6.678 10.942-10.793 18.649-10.793h142.429c-10.437-69.337-70.232-122.719-142.429-122.719zM478.201 276.465c-15.54 0-28.182 12.64-28.182 28.168 0 15.518 12.62 28.142 28.14 28.17 0.010 0 0.022-0.012 0.032-0.012 0.020 0 0.032 0.012 0.042 0.012 15.52-0.024 28.14-12.652 28.14-28.17-0.002-15.53-12.644-28.168-28.172-28.168zM494.043 375.464l-81.845 257.997h232.789l-150.945-257.997zM836.773 160.408c-79.523 0-144.213 64.702-144.213 144.225 0 53.46 29.304 100.113 72.627 125.030l51.541-132.811c3.309-8.518 11.434-13.734 20.057-13.734 2.582 0 5.215 0.473 7.769 1.47 11.078 4.296 16.566 16.756 12.263 27.826l-51.561 132.861c10.162 2.281 20.681 3.583 31.517 3.583 79.523 0 144.225-64.698 144.225-144.225 0-79.523-64.702-144.225-144.225-144.225z" />
<glyph unicode="&#xe90e;" glyph-name="motorcycle" d="M858.254 466.978c-29.579 0-57.35-7.824-81.418-21.458l-42.899 56.949c54.479 39.819 110.445 58.088 115.275 59.613 6.021 1.914 10.915 6.34 13.425 12.108 2.51 5.787 2.403 12.382-0.32 18.064-73.701 154.337-187.977 167.679-192.808 168.17-9.256 0.915-17.703-3.872-21.721-11.979-4.044-8.127-2.619-17.895 3.551-24.553 13.554-14.553 19.17-30.3 17.151-48.149-0.874-7.774-3.139-15.692-6.447-23.608-124.338 40.663-203.648-17.268-231.653-43.647-69.423 24.453-131.843 36.808-186.56 36.808-84.34 0-119.893-29.828-123.68-33.234-6.169-5.55-8.66-14.148-6.384-22.15 2.278-8 8.894-13.997 17.063-15.49 80.2-14.532 136.267-41.925 175.371-74.353l-50.671-59.609c-25.89 16.748-56.698 26.517-89.763 26.517-91.403 0-165.764-74.361-165.764-165.748 0-91.403 74.361-165.764 165.766-165.764 91.403 0 165.766 74.361 165.766 165.764 0 42.667-16.217 81.615-42.803 111.024l48.575 57.143c70.616-83.31 56.215-181.925 55.208-188.209-1.066-6.317 0.723-12.764 4.871-17.659 4.127-4.894 10.213-7.701 16.618-7.701h194.85c6.361 0 12.428 2.788 16.553 7.617 4.148 4.85 5.958 11.258 4.978 17.552-13.437 85.635 23.121 148.933 70.021 193.569l41.645-55.285c-30.565-30.083-49.559-71.885-49.559-118.050 0-91.403 74.361-165.764 165.766-165.764 91.384 0 165.743 74.361 165.743 165.764 0 91.384-74.361 165.746-165.746 165.746zM638.663 613.738c-21.389-27.412-49.52-51.718-68.514-66.017-32.279 16.417-63.425 30.774-93.401 43.073 28.478 20.511 82.762 45.541 161.915 22.944zM287.957 301.231c0-67.381-54.807-122.19-122.192-122.19-67.381 0-122.192 54.809-122.192 122.19 0 67.362 54.811 122.173 122.192 122.173 22.304 0 43.211-6.035 61.229-16.511l-77.824-91.554 33.192-28.212 77.828 91.556c17.343-21.096 27.767-48.078 27.767-77.452zM584.531 299.404h-147.19c1.383 64.019-16.192 231.869-227.47 300.232 9.937 1.3 21.236 2.086 33.957 2.086 58.449 0 161.085-17.149 318.173-98.805 7.063-3.684 15.636-3.237 22.275 1.319 4.809 3.254 117.808 80.852 127.513 166.573 1.17 10.236 0.871 20.171-0.853 29.725 29.468-15.872 68.234-46.682 101.213-105.98-65.084-27.109-239.212-116.684-227.618-295.15zM858.254 179.041c-67.383 0-122.19 54.809-122.19 122.19 0 31.951 12.344 61.064 32.498 82.856l72.29-95.961 34.808 26.212-72.307 95.986c16.52 8.345 35.163 13.080 54.903 13.080 67.362 0 122.169-54.811 122.169-122.173 0-67.381-54.809-122.19-122.171-122.19z" />
<glyph unicode="&#xe90f;" glyph-name="car-luxury" d="M1024 404.925h-25.874v95.606h-56.455l-78.199 134.998h-606.479l-78.205-134.998h-159.298v-95.606h-19.49v-53.967h19.524v-33.722h112.127c6.315-32.292 34.781-56.764 68.915-56.764s62.565 24.472 68.915 56.764h493.122c6.315-32.292 34.781-56.764 68.915-56.764s62.599 24.472 68.915 56.764h97.723v33.722h25.839v53.967zM200.566 287.472c-23.86 0-43.315 19.387-43.315 43.281s19.421 43.315 43.315 43.315 43.281-19.421 43.281-43.315c0-23.894-19.387-43.281-43.281-43.281zM831.489 287.472c-23.826 0-43.315 19.387-43.315 43.281s19.455 43.315 43.315 43.315c23.894 0 43.315-19.421 43.315-43.315s-19.387-43.281-43.315-43.281zM971.126 344.236h-70.722c-6.315 32.292-34.781 56.764-68.915 56.764s-62.599-24.472-68.915-56.764h-493.094c-6.315 32.292-34.781 56.764-68.915 56.764s-62.599-24.472-68.915-56.764h-85.161v129.329h147.863l78.199 134.963h575.32l78.199-134.963h45.054v-129.329zM405.536 581.562h355.636v-105.165h-355.636v105.165zM788.208 581.562v-105.165h105.062l-60.929 105.165zM227.223 476.396h151.352v105.165h-90.458z" />
<glyph unicode="&#xe910;" glyph-name="truck" d="M968.22 637.010c-34.112 36.901-82.598 57.068-136.448 57.068h-140.524v78.951c0 14.16-11.585 25.745-25.745 25.745h-639.759c-14.16 0-25.745-11.585-25.745-25.745v-566.171c0-14.16 11.585-25.745 25.745-25.745h102.55c8.367-47.628 49.773-83.885 99.761-83.885s91.394 36.257 99.761 83.885h394.11c8.367-47.628 49.773-83.885 99.761-83.885s91.394 36.257 99.761 83.885h76.805c14.16 0 25.745 11.585 25.745 25.745v266.030c-0.215 68.009-19.309 124.862-55.78 164.123zM51.49 747.283h588.269v-514.896h-316.447c-13.945 39.046-51.49 67.151-95.256 67.151s-81.311-28.105-95.256-67.151h-81.311v514.896zM228.056 148.717c-27.461 0-49.773 22.312-49.773 49.773s22.312 49.773 49.773 49.773 49.773-22.312 49.773-49.773-22.312-49.773-49.773-49.773zM821.689 148.717c-27.461 0-49.773 22.312-49.773 49.773s22.312 49.773 49.773 49.773c27.461 0 49.773-22.312 49.773-49.773s-22.312-49.773-49.773-49.773zM972.296 232.602h-55.351c-13.945 39.046-51.49 67.151-95.256 67.151s-81.311-28.105-95.256-67.151h-34.97v409.986h140.524c86.674 0 140.524-65.006 140.524-169.701v-240.285h-0.215z" />
<glyph unicode="&#xe911;" glyph-name="bus" d="M1001.977 676.475h-979.955c-12.16 0-22.023-9.862-22.023-22.023v-346.84c0-12.16 9.862-22.023 22.023-22.023h79.369c4.694-37.189 36.455-66.068 74.899-66.068s70.204 28.879 74.899 66.068h530.159c4.694-37.189 36.458-66.068 74.899-66.068s70.204 28.879 74.899 66.068h70.828c12.16 0 22.023 9.862 22.023 22.023v346.84c0.004 12.164-9.859 22.023-22.019 22.023zM887.765 295.088c0-17.379-14.138-31.518-31.518-31.518s-31.518 14.138-31.518 31.518c0 17.376 14.138 31.514 31.518 31.514s31.518-14.138 31.518-31.514zM207.808 295.088c0-17.379-14.138-31.518-31.518-31.518-17.376 0-31.514 14.138-31.514 31.518 0 17.376 14.138 31.514 31.514 31.514 17.379 0 31.518-14.138 31.518-31.514zM923.372 329.638c-12.571 24.32-37.912 41.010-67.121 41.010s-54.553-16.693-67.121-41.010h-545.718c-12.571 24.32-37.912 41.010-67.121 41.010s-54.55-16.693-67.121-41.010h-65.124v196.228h935.91v-196.228h-56.583zM979.955 569.911h-155.226v62.518h155.226v-62.518zM780.684 632.43v-62.518h-736.639v62.518h736.639z" />
<glyph unicode="&#xe912;" glyph-name="excavator" d="M65.145 57.129c0-26.38 21.461-47.841 47.841-47.841s47.841 21.461 47.841 47.841c0 17.017-9.155 32.888-23.89 41.42-7.251 4.2-15.535 6.421-23.951 6.421-26.38 0-47.841-21.461-47.841-47.841zM130.29 57.129c0-9.542-7.762-17.304-17.304-17.304s-17.304 7.762-17.304 17.304 7.762 17.304 17.304 17.304c3.050 0 6.038-0.798 8.648-2.311 5.34-3.090 8.656-8.837 8.656-14.994zM243.276 9.288c26.38 0 47.841 21.461 47.841 47.841 0 17.017-9.155 32.888-23.89 41.42-7.254 4.2-15.535 6.421-23.951 6.421-26.38 0-47.841-21.461-47.841-47.841s21.461-47.841 47.841-47.841zM243.276 74.433c3.050 0 6.038-0.798 8.648-2.311 5.34-3.092 8.656-8.837 8.656-14.994 0-9.542-7.762-17.304-17.304-17.304s-17.304 7.762-17.304 17.304 7.762 17.304 17.304 17.304zM373.567 9.288c26.38 0 47.841 21.461 47.841 47.841 0 17.017-9.155 32.888-23.89 41.42-7.254 4.2-15.535 6.421-23.951 6.421-26.38 0-47.841-21.461-47.841-47.841s21.461-47.841 47.841-47.841zM373.567 74.433c3.050 0 6.038-0.798 8.648-2.311 5.34-3.092 8.656-8.837 8.656-14.994 0-9.542-7.762-17.304-17.304-17.304s-17.304 7.762-17.304 17.304 7.762 17.304 17.304 17.304zM503.857 9.288c26.38 0 47.841 21.461 47.841 47.841 0 17.017-9.155 32.888-23.89 41.42-7.254 4.2-15.535 6.421-23.951 6.421-26.38 0-47.841-21.461-47.841-47.841s21.461-47.841 47.841-47.841zM503.857 74.433c3.050 0 6.038-0.798 8.648-2.311 5.34-3.092 8.656-8.837 8.656-14.994 0-9.542-7.762-17.304-17.304-17.304s-17.304 7.762-17.304 17.304 7.762 17.304 17.304 17.304zM129.272 318.728h16.286c8.432 0 15.268 6.836 15.268 15.268s-6.836 15.268-15.268 15.268h-16.286c-8.432 0-15.268-6.836-15.268-15.268s6.836-15.268 15.268-15.268zM129.272 269.869h16.286c8.432 0 15.268 6.836 15.268 15.268s-6.836 15.268-15.268 15.268h-16.286c-8.432 0-15.268-6.836-15.268-15.268s6.836-15.268 15.268-15.268zM1017.522 423.133l-259.63 490.594c-9.994 22.438-32.493 38.13-58.6 38.13-21.864 0-41.2-11.007-52.78-27.764-0.026-0.035-0.055-0.063-0.081-0.098l-248.439-331.123c-3.432 0.446-6.914 0.686-10.431 0.686h-111.712c-44.339 0-80.414-36.074-80.414-80.414v-98.736h-98.736c-26.38 0-47.841-21.461-47.841-47.841v-114.004c0-26.38 21.461-47.841 47.841-47.841h131.308v-34.608h-115.022c-62.301 0-112.986-50.685-112.986-112.986s50.685-112.986 112.986-112.986h390.871c62.301 0 112.986 50.685 112.986 112.986s-50.685 112.986-112.986 112.986h-115.022v34.608h131.308c8.432 0 15.268 6.836 15.268 15.268v49.875l17.306 0.002c0.206 0 0.405 0.022 0.609 0.031 0.318 0.012 0.637 0.016 0.951 0.049 0.161 0.016 0.314 0.051 0.472 0.071 0.348 0.047 0.7 0.090 1.040 0.159 0.277 0.057 0.546 0.138 0.816 0.21 0.216 0.057 0.436 0.102 0.647 0.167 0.167 0.053 0.326 0.122 0.491 0.179 0.307 0.106 0.615 0.208 0.912 0.334 0.035 0.014 0.067 0.035 0.104 0.049 0.875 0.379 1.71 0.831 2.49 1.358 0.195 0.132 0.379 0.283 0.568 0.423 0.204 0.151 0.413 0.293 0.609 0.454 0.208 0.171 0.399 0.36 0.596 0.542 0.163 0.149 0.332 0.289 0.489 0.444 0.143 0.143 0.269 0.297 0.405 0.446 0.195 0.212 0.397 0.417 0.58 0.639 0.067 0.081 0.124 0.171 0.189 0.254 0.238 0.301 0.474 0.603 0.688 0.922 0.098 0.145 0.179 0.299 0.273 0.448 0.169 0.267 0.34 0.531 0.493 0.81 0.855 1.574 1.425 3.322 1.682 5.171 0.096 0.69 0.163 1.39 0.163 2.107v58.272c0 28.833-8.453 56.752-24.448 80.743l-24.197 36.294 167.741 281.616 247.745-366.963c5.786-9.91 15.028-17.557 26.066-21.286v-25.211l-4.454 11.085c-1.511 3.758-4.45 6.761-8.174 8.351-3.725 1.592-7.929 1.635-11.685 0.126l-208.66-83.823-35.948 29.637c-6.506 5.364-16.13 4.438-21.494-2.068s-4.438-16.13 2.068-21.494l112.697-92.909c20.59-16.974 46.070-25.816 71.869-25.816 14.198 0 28.495 2.679 42.122 8.153l51.959 20.873c22.402 9 36.943 29.299 39.726 51.715 0.32 1.232 0.509 2.516 0.509 3.848v117.534c18.912 6.388 32.573 24.287 32.573 45.329 0 8.74-2.368 16.934-6.478 23.992zM195.435 235.26h-98.736c-9.542 0-17.304 7.762-17.304 17.304v114.004c0 9.542 7.762 17.304 17.304 17.304h98.736v-148.612zM939.808 209.052l-51.959-20.873c-28.012-11.256-59.887-6.317-83.182 12.891l-49.909 41.145 179.035 71.922 24.664-61.393c6.905-17.188-1.462-36.789-18.648-43.692zM699.292 921.32c12.567 0 23.528-6.948 29.287-17.192 0.228-0.605 0.48-1.203 0.79-1.789l0.983-1.859c1.623-3.935 2.53-8.237 2.53-12.75 0-6.348-1.802-12.268-4.874-17.337-0.098-0.151-0.204-0.291-0.297-0.446l-0.639-1.073c-6.050-8.886-16.244-14.735-27.78-14.735-18.522 0-33.59 15.069-33.59 33.59s15.069 33.59 33.59 33.59zM503.857 139.579c45.463 0 82.449-36.986 82.449-82.449s-36.986-82.449-82.449-82.449h-390.871c-45.463 0-82.449 36.986-82.449 82.449s36.986 82.449 82.449 82.449h390.871zM258.545 170.115v34.608h99.753v-34.608h-99.753zM504.875 235.26h-278.903v163.801c0 0.026 0.004 0.051 0.004 0.079s-0.004 0.053-0.004 0.079v113.925c0 22.178 14.554 41.013 34.608 47.477v-219.313c0-18.167 10.727-34.673 27.326-42.051 43.875-19.501 90.464-29.389 138.478-29.389h78.49v-34.608zM537.447 343.409v-43.004h-111.062c-18.2 0-36.17 1.584-53.836 4.686v208.053c0 8.432-6.836 15.268-15.268 15.268s-15.268-6.836-15.268-15.268v-201.062c-14.155 4.008-28.076 9.023-41.701 15.079-5.584 2.482-9.194 8.035-9.194 14.147v221.713h96.445c16.714 0 32.229-8.304 41.499-22.21l89.068-133.598c12.638-18.957 19.318-41.021 19.318-63.804zM500.569 488.602l-46.1 69.15c-6.85 10.277-15.832 18.627-26.129 24.688l211.347 281.686c9.422-23.709 32.581-40.522 59.606-40.522 0.277 0 0.552 0.018 0.827 0.020l-199.55-335.021zM936.956 426.514l-232.605 344.54 48.824 81.969c0.423 0.656 0.841 1.315 1.242 1.987l216.117-408.372c-13.87-1.631-25.936-9.214-33.578-20.124zM976.159 381.837c-9.542 0-17.304 7.762-17.304 17.304s7.762 17.304 17.304 17.304 17.304-7.762 17.304-17.304-7.762-17.304-17.304-17.304z" />
<glyph unicode="&#xe913;" glyph-name="forklift" d="M613.020 312.784l-214.379 409.516c-17.359 34.928-52.288 56.68-91.608 56.68h-76.34c-56.68 0-104.575-47.895-104.575-106.667v-357.229h-56.471c-39.32 0-69.647-30.536-69.647-69.647v-132.81c0-37.020 30.536-69.647 69.647-69.647h13.595c5.438-60.235 55.425-106.667 117.124-106.667 62.327 0 112.941 47.686 117.333 108.967h31.163c4.392-61.281 54.797-108.967 117.333-108.967 60.444 0 110.641 47.686 117.124 108.967h13.804c37.020 0 69.647 32.627 69.647 69.647v130.719c0 31.163-22.588 59.817-53.752 67.137zM170.039 672.105c0 32.627 28.235 61.072 61.072 61.072h76.34c21.752 0 41.412-13.176 52.288-32.627l108.34-207.059h-298.039v178.614zM170.039 449.778h320.627l70.693-135.111h-391.32v135.111zM200.366-18.51c-39.32 0-71.948 32.627-71.948 74.039s32.627 74.039 71.948 74.039 71.948-32.627 71.948-74.039-32.627-74.039-71.948-74.039zM466.196-18.51c-39.32 0-71.948 32.627-71.948 74.039s32.627 74.039 71.948 74.039 71.948-32.627 71.948-74.039-32.627-74.039-71.948-74.039zM596.915 88.157h-18.196c-14.641 48.105-59.19 82.824-112.523 82.824s-97.673-34.719-112.523-82.824h-40.784c-14.641 48.105-59.19 82.824-112.523 82.824-53.961 0-99.137-35.765-113.15-84.915h-17.569c-15.268 0-26.144 10.876-26.144 26.144v132.81c0 15.268 13.176 26.144 26.144 26.144h527.268c15.268 0 26.144-10.876 26.144-26.144v-130.719c0-15.268-13.176-26.144-26.144-26.144zM758.17 158.013v801.673h-45.804v-845.386h311.634v43.712z" />
<glyph unicode="&#xe914;" glyph-name="music" d="M489.046 474.678c-127.216 0-230.713-103.5-230.713-230.713 0-127.216 103.5-230.715 230.713-230.715 127.216 0 230.715 103.5 230.715 230.715s-103.5 230.713-230.715 230.713zM489.046 47.662c-108.242 0-196.299 88.062-196.299 196.301s88.062 196.299 196.299 196.299c108.242 0 196.301-88.062 196.301-196.299 0-108.242-88.062-196.301-196.301-196.301zM277.357 883.486h-112.87v44.004c0 9.502-7.704 17.206-17.206 17.206s-17.206-7.704-17.206-17.206v-44.006h-112.87c-9.502 0.002-17.206-7.702-17.206-17.206s7.704-17.206 17.206-17.206h260.149c9.502 0 17.206 7.704 17.206 17.206s-7.702 17.208-17.204 17.208zM1006.79 822.275h-158.777v33.802c0 9.502-7.704 17.206-17.206 17.206s-17.206-7.704-17.206-17.206v-33.804h-158.775c-9.502 0-17.206-7.704-17.206-17.206s7.704-17.206 17.206-17.206h158.775v-157.171l-154.319-22.19v18.034c0 9.502-7.704 17.206-17.206 17.206h-306.061c-9.502 0-17.206-7.704-17.206-17.206v-18.034l-154.321 22.19v157.171h112.868c9.502 0 17.206 7.704 17.206 17.206s-7.704 17.206-17.206 17.206h-260.149c-9.502 0.002-17.206-7.702-17.206-17.206 0-9.502 7.704-17.206 17.206-17.206h112.868v-47.202h-26.15c-9.502 0-17.206-7.704-17.206-17.206s7.704-17.206 17.206-17.206h26.152v-70.61l-18.602 2.676c-4.516 0.644-9.108-0.524-12.76-3.258-3.654-2.734-6.070-6.81-6.72-11.326l-22.494-156.523c-1.352-9.406 5.176-18.126 14.582-19.478l45.996-6.616v-368.085l-92.346-92.348c-6.72-6.72-6.72-17.614 0-24.332 3.358-3.36 7.764-5.040 12.166-5.040s8.808 1.68 12.166 5.040l68.014 68.014v-55.846c0-9.502 7.704-17.206 17.206-17.206s17.206 7.704 17.206 17.206v55.846l68.014-68.014c6.72-6.72 17.614-6.72 24.332 0 6.72 6.72 6.72 17.616 0 24.332l-92.348 92.348v363.133l93.046-13.384c-38.312-49.488-61.148-111.528-61.148-178.811 0-90.092 40.928-170.789 105.156-224.519l-16.382-45.054c-3.248-8.932 1.358-18.804 10.29-22.050 1.94-0.706 3.926-1.042 5.88-1.042 7.030 0 13.63 4.344 16.172 11.332l12.912 35.508c45.736-29.616 100.21-46.834 158.633-46.834s112.898 17.218 158.633 46.834l12.912-35.508c2.542-6.99 9.14-11.332 16.172-11.332 1.952 0 3.94 0.334 5.88 1.042 8.932 3.248 13.538 13.12 10.29 22.050l-16.382 45.054c64.226 53.728 105.156 134.427 105.156 224.519 0 67.282-22.836 129.321-61.148 178.811l93.044 13.384v-363.135l-92.346-92.346c-6.72-6.72-6.72-17.614 0-24.332 6.72-6.72 17.614-6.72 24.332 0l68.014 68.014v-55.846c0-9.502 7.704-17.206 17.206-17.206s17.206 7.704 17.206 17.206v55.846l68.014-68.014c3.358-3.358 7.764-5.040 12.166-5.040s8.808 1.68 12.166 5.040c6.72 6.72 6.72 17.616 0 24.332l-92.346 92.348v368.081l46 6.616c9.406 1.352 15.934 10.074 14.582 19.478l-22.498 156.523c-0.65 4.518-3.068 8.592-6.72 11.326s-8.244 3.9-12.76 3.258l-18.604-2.676v70.61h26.152c9.502 0 17.206 7.704 17.206 17.206s-7.704 17.206-17.206 17.206h-26.15v47.206h158.777c9.502 0 17.206 7.704 17.206 17.206 0 9.504-7.708 17.208-17.21 17.208zM130.075 475.88l-24.066 3.46 17.598 122.46 6.468-0.93v-124.99zM353.221 609.327h271.643v-5.776l-51.094-7.348c-4.518-0.65-8.592-3.068-11.326-6.72s-3.908-8.244-3.258-12.76l7.264-50.514c-24.668 6.772-50.62 10.412-77.408 10.412-26.79 0-52.74-3.636-77.406-10.412l7.264 50.514c0.65 4.518-0.524 9.108-3.258 12.76s-6.81 6.070-11.326 6.72l-51.094 7.348v5.776zM164.487 470.928v124.996l217.901-31.332-7.346-51.090c-33.686-14.302-64.146-34.752-89.998-59.916l-120.558 17.342zM747.291 243.963c0-142.395-115.852-258.245-258.245-258.245-142.397 0-258.243 115.848-258.243 258.245s115.848 258.243 258.243 258.243 258.245-115.848 258.245-258.243zM813.601 470.93l-120.556-17.344c-25.852 25.164-56.312 45.614-89.998 59.916l-7.346 51.090 217.899 31.332v-124.994zM854.483 601.799l17.598-122.46-24.070-3.462v124.994l6.472 0.928z" />
<glyph unicode="&#xe915;" glyph-name="pipes" d="M464.921 835.007c-10.097 0-18.28-8.187-18.28-18.284v-27.862l-134.567 0.012v134.563h27.842c10.097 0 18.28 8.187 18.28 18.284 0 10.093-8.183 18.28-18.28 18.28h-312.642c-10.101 0-18.284-8.187-18.284-18.284s8.183-18.284 18.28-18.284h27.838v-263.038c0-70.853 57.638-128.499 128.491-128.499h263.042v-27.826c0-10.097 8.183-18.284 18.28-18.284s18.28 8.187 18.28 18.284v312.658c0 10.097-8.183 18.28-18.28 18.28zM183.599 568.462c-50.691 0-91.927 41.241-91.927 91.931v263.042h183.839v-152.843c0-10.097 8.183-18.28 18.28-18.284l152.847-0.008v-183.839h-263.038zM996.726 396.768h-27.842v263.058c0 70.841-57.638 128.475-128.487 128.475h-263.042v27.83c0 10.097-8.183 18.284-18.28 18.284s-18.28-8.187-18.28-18.284v-312.638c0-10.097 8.183-18.284 18.28-18.284s18.28 8.187 18.28 18.284v27.826h134.567v-134.555h-27.846c-10.097 0-18.28-8.187-18.28-18.284s8.183-18.284 18.28-18.284h312.646c10.097 0 18.28 8.187 18.28 18.284s-8.175 18.288-18.276 18.288zM730.206 567.887h-152.847v183.847h263.042c50.687 0 91.923-41.233 91.923-91.911v-263.058h-183.835v152.839c0 10.097-8.183 18.284-18.284 18.284zM840.413 303.154c-6.004 0-11.628-2.95-15.042-7.891-11.612-16.809-113.445-166.090-113.445-230.78 0-70.845 57.638-128.479 128.487-128.479 70.841 0 128.475 57.638 128.475 128.479 0 64.693-101.821 213.971-113.433 230.78-3.414 4.937-9.034 7.891-15.042 7.891zM840.413-27.432c-50.687 0-91.923 41.233-91.923 91.915 0 35.553 51.43 125.825 91.923 187.616 40.489-61.775 91.911-152.036 91.911-187.616 0-50.687-41.233-91.915-91.911-91.915z" />
<glyph unicode="&#xe916;" glyph-name="ruler" d="M328.208-63.938c-4.127 0-8.068 1.645-10.985 4.53l-312.692 312.754c-6.051 6.051-6.051 15.888 0 21.938l680.308 680.277c5.834 5.834 16.136 5.834 21.938 0l312.661-312.723c6.051-6.051 6.051-15.888 0-21.938l-680.277-680.308c-2.917-2.886-6.858-4.53-10.954-4.53zM37.454 264.301l290.754-290.785 658.339 658.37-290.723 290.785-658.37-658.37zM656.105 736.365c-3.972 0-7.944 1.52-10.985 4.53l-76.552 76.552c-6.051 6.051-6.051 15.888 0 21.938s15.888 6.051 21.938 0l76.552-76.552c6.051-6.051 6.051-15.888 0-21.938-3.010-3.010-6.982-4.53-10.954-4.53zM593.268 575.348c-3.972 0-7.944 1.52-10.985 4.53l-125.642 125.642c-6.051 6.051-6.051 15.888 0 21.938s15.888 6.051 21.938 0l125.642-125.642c6.051-6.051 6.051-15.888 0-21.938-3.010-3.041-6.982-4.53-10.954-4.53zM432.19 512.419c-3.972 0-7.944 1.52-10.985 4.53l-76.552 76.552c-6.051 6.051-6.051 15.888 0 21.938s15.888 6.051 21.938 0l76.552-76.552c6.051-6.051 6.051-15.888 0-21.938-3.010-3.010-6.982-4.53-10.954-4.53zM369.292 351.341c-3.972 0-7.944 1.52-10.985 4.53l-125.642 125.642c-6.051 6.051-6.051 15.888 0 21.938s15.888 6.051 21.938 0l125.642-125.642c6.051-6.051 6.051-15.888 0-21.938-3.010-3.010-6.982-4.53-10.954-4.53zM208.244 288.504c-3.972 0-7.944 1.52-10.985 4.53l-76.552 76.552c-6.051 6.051-6.051 15.888 0 21.938s15.888 6.051 21.938 0l76.552-76.552c6.051-6.051 6.051-15.888 0-21.938-3.010-3.010-6.982-4.53-10.954-4.53z" />
<glyph unicode="&#xe917;" glyph-name="science" d="M868.35 598.288c-19.282 7.416-39.853 14.146-61.484 20.186 5.584 21.752 10.042 42.934 13.262 63.342 16.752 106.228-1.76 180.745-52.126 209.824-14.641 8.453-31.467 12.741-50.010 12.741-58.568 0-132.575-43.498-207.236-116.956-16.31 16.018-32.694 30.731-49.026 43.938-83.617 67.623-157.413 88.851-207.774 59.771-32.367-18.687-52.052-56.849-56.921-110.357-0.819-8.987 5.804-16.935 14.791-17.752 9.016-0.832 16.933 5.804 17.752 14.791 2.697 29.618 11.948 68.408 40.716 85.016 37.278 21.528 99.565 0.795 170.886-56.878 15.563-12.584 31.186-26.617 46.758-41.903-31.315-33.319-62.477-71.667-92.4-114.050-52.638-4.791-102.775-12.828-148.787-23.853-8.057 31.321-13.591 61.207-16.321 88.951-0.882 8.981-8.843 15.543-17.861 14.661-8.981-0.882-15.545-8.88-14.661-17.861 2.889-29.356 8.732-60.93 17.249-93.975-20.907-5.896-40.807-12.445-59.503-19.635-100.378-38.607-155.655-91.899-155.655-150.055s55.276-111.448 155.65-150.053c19.282-7.416 39.853-14.146 61.484-20.186-5.584-21.752-10.042-42.934-13.262-63.342-16.752-106.228 1.76-180.745 52.126-209.824 14.641-8.453 31.467-12.741 50.010-12.741 57.895 0 130.878 42.52 204.665 114.451 15.807-15.438 31.679-29.65 47.503-42.446 59.176-47.858 113.422-72.477 157.933-72.475 18.384 0.002 35.119 4.205 49.84 12.704 50.366 29.079 68.878 103.596 52.126 209.824-3.218 20.406-7.676 41.585-13.26 63.335 33.637 9.264 64.577 20.175 91.981 32.594 8.22 3.726 11.863 13.408 8.138 21.628s-13.41 11.865-21.628 8.138c-25.953-11.761-55.289-22.114-87.24-30.92-13.21 44.143-30.801 90.225-52.237 136.841 22.399 48.198 40.709 95.873 54.344 141.478 121.279-33.958 193.146-87.589 193.146-139.005 0-33.219-28.968-60.627-53.27-77.767-7.375-5.203-9.135-15.397-3.935-22.772 5.203-7.377 15.397-9.135 22.772-3.935 43.908 30.971 67.113 67.098 67.113 104.474 0 58.157-55.276 111.448-155.65 150.053zM717.99 871.699c12.732 0 24.062-2.813 33.67-8.362 37.282-21.526 50.472-85.833 36.182-176.431-3.061-19.406-7.299-39.563-12.613-60.283-46.204 10.955-96.515 18.911-149.312 23.606-29.622 41.923-60.712 80.262-92.323 113.845 5.785 5.704 11.573 11.238 17.351 16.563 63.732 58.723 123.054 91.062 167.045 91.062zM510.802 740.644c24.657-26.28 49.021-55.594 72.602-87.371-23.463 1.279-47.304 1.941-71.403 1.941-24.905 0-49.54-0.699-73.761-2.063 23.548 31.722 47.945 61.157 72.562 87.493zM510.686 153.136c-25.53 27.060-50.756 57.39-75.135 90.343 25.086-1.468 50.62-2.222 76.449-2.222 24.879 0 49.527 0.726 73.796 2.111-24.358-32.82-49.625-63.205-75.109-90.232zM512 273.937c-35.11 0-68.8 1.36-100.905 3.887-18.033 26.31-35.478 53.989-52.087 82.757-16.347 28.313-31.385 56.88-45.006 85.308 14.14 29.764 29.864 59.723 47.052 89.495 16.645 28.829 34.315 56.784 52.675 83.46 31.317 2.394 64.118 3.689 98.271 3.689 33.276 0 65.266-1.229 95.851-3.506 18.375-26.726 36.145-54.871 53.050-84.149 17.103-29.624 32.755-59.433 46.843-89.051-13.549-28.197-28.522-56.553-44.795-84.739-16.613-28.774-34.25-56.679-52.573-83.312-32.062-2.523-64.991-3.839-98.376-3.839zM369.043 281.901c-40.204 4.645-77.523 11.175-111.562 19.195 10.336 34.4 23.439 70.068 39.062 106.3 10.671-21.107 22.066-42.208 34.16-63.155 12.349-21.391 25.162-42.204 38.339-62.34zM371.636 614.873c-13.314-20.301-26.315-41.376-38.884-63.148-12.926-22.389-25.053-44.903-36.335-67.384-16.434 37.731-30.193 74.896-40.934 110.568 35.302 8.408 74.168 15.214 116.152 19.964zM32.681 448.235c0 51.139 71.1 104.472 191.198 138.458 13.584-45.322 31.812-92.857 54.043-140.848-21.38-46.542-38.923-92.546-52.1-136.617-121.274 33.96-193.142 87.591-193.142 139.007zM306.010 24.772c-12.732 0-24.062 2.813-33.67 8.362-37.282 21.526-50.472 85.833-36.182 176.431 3.061 19.406 7.299 39.563 12.613 60.283 44.703-10.599 93.249-18.391 144.173-23.136 30.395-43.154 62.351-82.537 94.84-116.884-4.911-4.795-9.824-9.473-14.728-13.994-63.732-58.725-123.054-91.062-167.045-91.062zM785.796 209.057c14.29-90.598 1.1-154.905-36.182-176.431-37.284-21.524-99.565-0.793-170.886 56.878-15.018 12.144-30.097 25.637-45.126 40.304 32.16 33.94 64.19 73.212 94.912 116.734 51.052 4.686 99.833 12.412 144.643 22.896 5.327-20.755 9.573-40.945 12.639-60.381zM764.379 300.897c-34.999-8.133-72.575-14.532-111.853-19.053 13.258 20.225 26.204 41.217 38.722 62.902 12.020 20.82 23.341 41.747 33.942 62.654 15.676-36.298 28.82-72.035 39.189-106.503zM725.341 484.226c-11.225 22.352-23.286 44.734-36.138 66.994-12.676 21.957-25.837 43.309-39.385 63.941 42.169-4.676 81.214-11.423 116.701-19.785-10.796-35.934-24.624-73.255-41.178-111.15zM512 529.937c-45.052 0-81.702-36.65-81.702-81.702s36.65-81.702 81.702-81.702 81.702 36.65 81.702 81.702-36.65 81.702-81.702 81.702zM512 399.214c-27.029 0-49.021 21.992-49.021 49.021s21.992 49.021 49.021 49.021 49.021-21.992 49.021-49.021-21.992-49.021-49.021-49.021z" />
<glyph unicode="&#xe918;" glyph-name="game" d="M398.142 551.106h-94.247v93.314c0 10.265-8.398 18.663-18.663 18.663s-18.663-8.398-18.663-18.663v-93.314h-92.381c-10.265 0-18.663-8.398-18.663-18.663s8.398-18.663 18.663-18.663h92.381v-93.314c0-10.265 8.398-18.663 18.663-18.663s18.663 8.398 18.663 18.663v93.314h94.247c10.265 0 18.663 8.398 18.663 18.663s-8.398 18.663-18.663 18.663zM621.162 569.769l-6.532-6.532c-14.93-14.93-14.93-38.259 0-53.189 7.465-6.532 16.796-10.265 26.128-10.265s18.663 3.733 26.128 11.198l6.532 6.532c14.93 14.93 14.93 38.259 0 53.189s-38.259 13.997-52.256-0.933zM716.342 669.614l-5.599-7.465c-14.93-14.93-14.93-38.259 0-53.189 7.465-6.532 16.796-10.265 26.128-10.265s18.663 3.733 26.128 11.198l6.532 6.532c14.93 14.93 14.93 38.259 0 53.189s-38.259 14.93-53.189 0zM717.275 470.856l-6.532-6.532c-14.93-14.93-14.93-38.259 0-53.189 7.465-7.465 16.796-11.198 26.128-11.198s18.663 3.733 26.128 11.198l6.532 6.532c14.93 14.93 14.93 38.259 0 53.189-13.997 14.93-38.259 14.93-52.256 0zM818.987 569.769l-6.532-6.532c-14.93-14.93-14.93-38.259 0-53.189 7.465-7.465 16.796-11.198 26.128-11.198s18.663 3.733 26.128 11.198l6.532 6.532c14.93 14.93 14.93 38.259 0 53.189-13.997 14.93-38.259 14.93-52.256 0zM986.019 622.958l-11.198 46.657c0 0.933 0 0.933 0 1.866-27.994 84.916-106.378 141.837-195.026 140.904h-14.93c-18.663 0-37.326-2.799-57.855-8.398l-100.779-29.86c-18.663-5.599-39.192-8.398-60.654-8.398h-68.119c-21.462 0-41.991 2.799-60.654 8.398l-100.779 29.86c-19.596 4.666-39.192 7.465-57.855 7.465h-13.997c-88.648 0-167.032-56.921-195.026-140.904 0-0.933 0-0.933 0-1.866l-11.198-46.657c-27.994-119.442-41.058-243.549-37.326-368.59l1.866-70.918c0.933-27.994 13.997-55.055 35.459-73.718 18.663-16.796 42.924-25.195 67.186-25.195 3.733 0 6.532 0 10.265 0.933l21.462 1.866c53.189 5.599 100.779 37.326 125.040 84.916l34.526 65.32c28.927 55.988 85.849 90.514 148.369 90.514h149.302c64.387 0 123.174-37.326 151.168-95.18l27.061-56.921c24.262-50.389 71.852-83.049 126.907-88.648l9.331-0.933c27.994-2.799 55.988 6.532 77.45 25.195s34.526 45.724 35.459 74.651l1.866 69.985c3.733 122.241-8.398 246.348-37.326 367.656zM986.019 255.301l-1.866-69.985c-0.933-18.663-8.398-35.459-22.395-47.59s-30.794-17.73-49.456-15.863l-9.331 0.933c-41.991 3.733-78.384 29.86-97.046 68.119l-27.061 56.921c-33.593 69.985-106.378 115.709-184.761 115.709h-149.302c-76.517 0-146.503-42.924-181.962-111.043l-34.526-65.32c-18.663-35.459-55.055-60.654-95.18-64.387l-21.462-1.866c-17.73-1.866-35.459 3.733-49.456 15.863s-21.462 28.927-22.395 47.59l-1.866 70.918c-3.733 121.308 8.398 242.616 35.459 359.258l11.198 45.724c23.328 68.119 86.782 113.843 159.567 113.843h13.997c14.93 0 30.794-1.866 46.657-6.532l100.779-29.86c22.395-6.532 46.657-10.265 71.852-10.265h68.119c25.195 0 49.456 3.733 71.852 10.265l100.779 29.86c15.863 4.666 31.727 6.532 47.59 6.532h14.93c0.933 0 0.933 0 1.866 0 69.985 0 134.372-46.657 157.7-114.776l11.198-45.724c26.128-116.642 38.259-237.95 34.526-358.325z" />
<glyph unicode="&#xe919;" glyph-name="tractor" d="M256 393.143c-50.411 0-91.429-41.017-91.429-91.429s41.017-91.429 91.429-91.429 91.429 41.017 91.429 91.429-41.017 91.429-91.429 91.429zM256 246.857c-30.25 0-54.857 24.607-54.857 54.857s24.607 54.857 54.857 54.857 54.857-24.607 54.857-54.857-24.607-54.857-54.857-54.857zM932.571 263.492v202.794c0 10.104-8.187 18.286-18.286 18.286h-182.857v128c0 10.104-8.187 18.286-18.286 18.286h-73.143c-10.099 0-18.286-8.182-18.286-18.286v-128h-91.429v222.663c0 9.268-6.938 17.074-16.154 18.16l-349.56 41.117v83.775h-36.571v-79.47l-52.726 6.201c-5.23 0.695-10.386-1.019-14.289-4.498-3.897-3.464-6.128-8.448-6.128-13.662v-292.571c0-1.881 0.543-3.594 1.071-5.303-34.91-43.76-55.928-99.067-55.928-159.269 0-141.16 114.84-256 256-256 69.909 0 133.308 28.228 179.555 73.806 1.108-0.204 2.132-0.664 3.302-0.664h372.114c15.109-42.543 55.651-73.143 103.314-73.143 60.5 0 109.714 49.215 109.714 109.714 0 54.256-39.623 99.318-91.429 108.063zM658.286 594.286h36.571v-109.714h-36.571v109.714zM91.429 738.283l402.286-47.318v-206.393h-54.857c-1.17 0-2.194-0.455-3.302-0.664-46.247 45.578-109.646 73.806-179.555 73.806-62.642 0-120.033-22.69-164.571-60.191v240.76zM256 82.286c-120.989 0-219.429 98.429-219.429 219.429s98.44 219.429 219.429 219.429 219.429-98.429 219.429-219.429c0-120.999-98.44-219.429-219.429-219.429zM804.571 155.429h-338.787c29.038 41.509 46.216 91.894 46.216 146.286s-17.178 104.777-46.216 146.286h430.216v-184.508c-51.806-8.746-91.429-53.802-91.429-108.063zM914.286 82.286c-40.333 0-73.143 32.805-73.143 73.143s32.81 73.143 73.143 73.143c40.333 0 73.143-32.805 73.143-73.143s-32.81-73.143-73.143-73.143zM713.179 411.429h-73.216c-30.234 0-54.821-24.66-54.821-54.967v-54.643c0-30.302 24.586-54.962 54.821-54.962h73.216c30.234 0 54.821 24.66 54.821 54.967v54.643c0 30.302-24.586 54.962-54.821 54.962zM731.429 301.824c0-10.141-8.187-18.395-18.249-18.395h-18.322v36.571h-36.571v-36.571h-18.322c-10.23 0-18.249 8.072-18.249 18.395v54.643c0 10.141 8.187 18.39 18.249 18.39h73.216c10.235 0 18.249-8.072 18.249-18.395v-54.638z" />
<glyph unicode="&#xe91a;" glyph-name="transport" d="M1016.621 152.749c-116.443 36.405-181.558 160.752-145.154 277.195 1.732 5.539-1.356 11.436-6.895 13.168-5.542 1.729-11.439-1.356-13.168-6.898-8.262-26.422-11.733-53.214-10.937-79.447l-97.565 61.783v109.687c0 5.4-4.091 9.92-9.465 10.458l-123.086 12.327v120.306c0 5.805-4.706 10.511-10.511 10.511h-14.379v110.83c0 5.805-4.706 10.511-10.511 10.511s-10.511-4.706-10.511-10.511v-110.83h-16.599c-5.805 0-10.511-4.706-10.511-10.511v-112.995l-120.356 12.053-44.664 147.258c-1.343 4.43-5.429 7.46-10.059 7.46h-286.389c-5.805 0-10.511-4.706-10.511-10.511v-168.391h-54.841c-5.805 0-10.511-4.706-10.511-10.511v-270.849c0-5.805 4.706-10.511 10.511-10.511h106.134c-2.134-9.415-3.298-19.193-3.298-29.244 0-72.93 59.334-132.262 132.262-132.262h444.768c69.388 0 126.426 53.721 131.807 121.751h69.814c29.234-37.429 69.693-66.676 118.353-81.888 1.043-0.326 2.1-0.481 3.138-0.481 4.475 0 8.624 2.88 10.027 7.376 1.734 5.539-1.353 11.433-6.895 13.165zM721.881 353.526c-10.104 2.478-20.649 3.821-31.504 3.821h-270.912v191.662l302.416-30.285v-165.198zM558.355 660.816h30.978v-107.69l-30.978 3.103v104.587zM354.458 704.079l43.986-145.014v-201.718h-152.834c-6.627 0-13.136-0.505-19.506-1.448v110.205c0 3.989-2.255 7.631-5.826 9.407l-133.904 66.687v161.882h268.084zM21.022 425.868h184.060v-25.2h-184.060v25.2zM73.39 525.178l131.692-65.583v-12.708h-184.060v78.288h52.368zM21.022 275.351v104.292h184.060v-28.674c-37.077-11.964-67.041-39.873-81.786-75.618h-102.274zM690.377 113.843h-444.768c-61.339 0-111.24 49.903-111.24 111.24 0 61.339 49.903 111.24 111.24 111.24h444.768c57.792 0 105.414-44.304 110.73-100.729h-33.719c-5.805 0-10.511-4.706-10.511-10.511s4.706-10.511 10.511-10.511h33.719c-5.316-56.423-52.936-100.729-110.73-100.729zM822.185 235.596c-3.934 49.738-35.472 91.81-79.279 110.846v47.228l99.754-63.168c0.021-0.013 0.042-0.021 0.060-0.032 4.775-33.848 16.662-66.18 34.565-94.874h-55.101zM248.092 282.806c-31.827 0-57.721-25.894-57.721-57.721s25.894-57.721 57.721-57.721c31.827 0 57.721 25.894 57.721 57.721s-25.894 57.721-57.721 57.721zM248.092 188.386c-20.236 0-36.699 16.463-36.699 36.699s16.463 36.699 36.699 36.699c20.236 0 36.699-16.463 36.699-36.699s-16.463-36.699-36.699-36.699zM582.501 235.596h-229.183c-5.805 0-10.511-4.706-10.511-10.511s4.706-10.511 10.511-10.511h229.183c5.805 0 10.511 4.706 10.511 10.511s-4.706 10.511-10.511 10.511zM680.437 282.806c-31.827 0-57.721-25.894-57.721-57.721s25.894-57.721 57.721-57.721c31.827 0 57.723 25.894 57.723 57.721s-25.896 57.721-57.723 57.721zM680.437 188.386c-20.236 0-36.699 16.463-36.699 36.699s16.463 36.699 36.699 36.699c20.236 0 36.702-16.463 36.702-36.699s-16.465-36.699-36.702-36.699zM264.729 380.39h94.37c5.805 0 10.511 4.706 10.511 10.511v161.030c0 0.883-0.11 1.761-0.331 2.617l-29.709 115.555c-1.193 4.646-5.382 7.894-10.18 7.894h-64.661c-5.805 0-10.511-4.706-10.511-10.511v-276.585c0-5.805 4.706-10.511 10.511-10.511zM275.24 401.412v140.008h73.348v-140.008h-73.348zM321.238 656.975l24.304-94.533h-70.302v94.533h45.999zM126.013 553.728l86.665-34.665c1.259-0.505 2.583-0.752 3.902-0.752 2.073 0 4.128 0.612 5.894 1.808 2.888 1.955 4.617 5.216 4.617 8.706v138.663c0 5.805-4.706 10.511-10.511 10.511h-86.665c-5.805 0-10.511-4.706-10.511-10.511v-103.998c0-4.302 2.617-8.167 6.609-9.762zM140.426 656.975h65.641v-112.627l-65.641 26.256v86.371zM590.205 425.868h100.146c5.805 0 10.511 4.706 10.511 10.511s-4.706 10.511-10.511 10.511h-100.146c-5.805 0-10.511-4.706-10.511-10.511s4.706-10.511 10.511-10.511zM590.205 472.087h100.146c5.805 0 10.511 4.706 10.511 10.511s-4.706 10.511-10.511 10.511h-100.146c-5.805 0-10.511-4.706-10.511-10.511s4.706-10.511 10.511-10.511zM690.351 400.668h-100.146c-5.805 0-10.511-4.706-10.511-10.511s4.706-10.511 10.511-10.511h100.146c5.805 0 10.511 4.706 10.511 10.511s-4.706 10.511-10.511 10.511z" />
<glyph unicode="&#xe91b;" d="M688.553 527.449c0-29.252-23.714-52.966-52.966-52.966s-52.966 23.714-52.966 52.966c0 29.252 23.714 52.966 52.966 52.966s52.966-23.714 52.966-52.966z" />
<glyph unicode="&#xe91c;" d="M651.999 533.925l-32.831-13.001-64.213 162.155 32.831 13.001 64.213-162.155z" />
<glyph unicode="&#xe91d;" d="M564.967 315.587h-264.827l-105.932 229.516h441.379z" />
<glyph unicode="&#xe91e;" d="M388.415 333.241h176.552v-52.966h-176.552v52.966z" />
<glyph unicode="&#xe91f;" d="M370.759 403.863h211.862v-35.31h-211.862v35.31z" />
<glyph unicode="&#xe920;" d="M670.897 527.449v158.896c0 9.75 7.906 17.656 17.656 17.656h199.138c7.598 0 14.348-4.862 16.748-12.072l31.288-93.86h52.966c9.75 0 17.656-7.906 17.656-17.656v-52.966h-335.451z" />
<glyph unicode="&#xe921;" d="M988.69 333.241h-406.069l52.966 176.552h300.137z" />
<glyph unicode="&#xe922;" d="M423.725 297.931c0-97.507-79.045-176.552-176.552-176.552s-176.552 79.045-176.552 176.552c0 97.507 79.045 176.552 176.552 176.552s176.552-79.045 176.552-176.552z" />
<glyph unicode="&#xe923;" d="M370.759 297.931c0-68.255-55.331-123.586-123.586-123.586s-123.586 55.331-123.586 123.586c0 68.255 55.331 123.586 123.586 123.586s123.586-55.331 123.586-123.586z" />
<glyph unicode="&#xe924;" d="M335.449 297.931c0-48.753-39.522-88.276-88.276-88.276s-88.276 39.522-88.276 88.276c0 48.753 39.522 88.276 88.276 88.276s88.276-39.522 88.276-88.276z" />
<glyph unicode="&#xe925;" d="M282.483 297.931c0-19.501-15.809-35.31-35.31-35.31s-35.31 15.809-35.31 35.31c0 19.501 15.809 35.31 35.31 35.31s35.31-15.809 35.31-35.31z" />
<glyph unicode="&#xe926;" d="M953.38 297.931c0-97.507-79.045-176.552-176.552-176.552s-176.552 79.045-176.552 176.552c0 97.507 79.045 176.552 176.552 176.552s176.552-79.045 176.552-176.552z" />
<glyph unicode="&#xe927;" d="M900.414 297.931c0-68.255-55.331-123.586-123.586-123.586s-123.586 55.331-123.586 123.586c0 68.255 55.331 123.586 123.586 123.586s123.586-55.331 123.586-123.586z" />
<glyph unicode="&#xe928;" d="M865.104 297.931c0-48.753-39.522-88.276-88.276-88.276s-88.276 39.522-88.276 88.276c0 48.753 39.522 88.276 88.276 88.276s88.276-39.522 88.276-88.276z" />
<glyph unicode="&#xe929;" d="M812.138 297.931c0-19.501-15.809-35.31-35.31-35.31s-35.31 15.809-35.31 35.31c0 19.501 15.809 35.31 35.31 35.31s35.31-15.809 35.31-35.31z" />
<glyph unicode="&#xe92a;" d="M618.839 533.031l-82.69-248.086c-3.080-9.244 1.914-19.238 11.158-22.322v0c9.25-3.086 19.246 1.912 22.33 11.16l68.772 206.284c2.404 7.21 9.15 12.072 16.748 12.072h239.014c7.218 0 13.712-4.396 16.392-11.098l61.742-154.354c2.682-6.702 9.174-11.098 16.392-11.098h17.648c9.75 0 17.656 7.906 17.656 17.656v194.206c0 9.75-7.906 17.656-17.656 17.656h-370.755c-7.6-0.004-14.348-4.868-16.75-12.076z" />
<glyph unicode="&#xe92b;" d="M884.348 668.689h-93.396c-7.802 0-14.124-6.322-14.124-14.124v-42.372c0-7.802 6.322-14.124 14.124-14.124h107.52c9.64 0 16.448 9.446 13.4 18.59l-14.124 42.372c-1.922 5.768-7.32 9.658-13.4 9.658z" />
<glyph unicode="&#xe92c;" d="M720.331 598.069h24.718c7.802 0 14.124 6.322 14.124 14.124v42.372c0 7.802-6.322 14.124-14.124 14.124h-24.718c-7.802 0-14.124-6.322-14.124-14.124v-42.372c0-7.802 6.326-14.124 14.124-14.124z" />
<glyph unicode="&#xe92d;" d="M536.423 474.483h-125.086c-15.182 0-30.264 2.448-44.666 7.248l-349.015 116.338 141.242 123.586h459.033l-46.984-219.26c-3.488-16.282-17.876-27.912-34.524-27.912z" />
<glyph unicode="&#xe92e;" d="M882.758 774.62h-211.862c-3.482 0-6.896-1.036-9.794-2.966l-48.516-32.344h-453.689c-4.276 0-8.414-1.552-11.622-4.37l-141.24-123.586c-7.344-6.422-8.086-17.57-1.672-24.914 3.502-3.984 8.382-6.028 13.294-6.028 4.138 0 8.276 1.438 11.622 4.37l122.946 107.568-28.24-131.782c-2.052-9.534 4.016-18.922 13.552-20.966 1.258-0.268 2.5-0.388 3.724-0.388 8.14 0 15.466 5.672 17.242 13.956l32.32 150.83h52.174l-36.612-170.844c-2.052-9.534 4.016-18.922 13.552-20.966 1.258-0.268 2.5-0.388 3.726-0.388 8.14 0 15.466 5.672 17.24 13.956l38.192 178.242h52.174l-42.716-199.336c-2.052-9.534 4.016-18.922 13.552-20.966 1.258-0.268 2.5-0.388 3.726-0.388 8.154 0 15.466 5.672 17.242 13.956l44.298 206.734h52.176l-48.39-225.82c-2.052-9.534 4.016-18.922 13.552-20.966 1.258-0.268 2.5-0.388 3.726-0.388 8.14 0 15.466 5.672 17.24 13.956l49.974 233.218h52.174l-48.39-225.82c-2.052-9.534 4.016-18.922 13.552-20.966 1.258-0.268 2.5-0.388 3.726-0.388 8.14 0 15.466 5.672 17.242 13.956l49.972 233.218h74.006c3.482 0 6.896 1.036 9.792 2.966l48.518 32.344h206.518c9.758 0 17.656 7.906 17.656 17.656 0 9.748-7.896 17.654-17.656 17.654z" />
<glyph unicode="&#xe92f;" glyph-name="vacuum-cleaner" d="M908.386 68.129v0 66.068h-33.032v644.125c0 100.171-81.507 181.679-181.679 181.679s-181.679-81.507-181.679-181.679v-297.289c0-9.101-7.417-16.518-16.518-16.518h-110.474c-27.863 7.878-57.228 13.065-87.716 15.246v50.818h-148.643v-49.55h-33.032c-63.753 0.004-115.614-51.854-115.614-115.607v-214.711c0-45.533 37.045-82.582 82.582-82.582h92.307c19.654-48.359 67.072-82.582 122.4-82.582s102.747 34.22 122.4 82.582h141.857c45.533 0 82.582 37.045 82.582 82.582 0 86.067-36.055 163.427-95.992 221.631 36.799 14.485 62.96 50.29 62.96 92.176v313.804c0 45.533 37.045 82.582 82.582 82.582s82.582-37.045 82.582-82.582v-644.129h-33.032v-66.064h-115.614v-132.129h396.386v132.129h-115.614zM181.679 497.55h82.579v-16.518h-82.579v16.518zM297.289 18.582c-54.652 0-99.096 44.445-99.096 99.096s44.445 99.096 99.096 99.096 99.096-44.445 99.096-99.096-44.445-99.096-99.096-99.096zM611.096 150.714c0-27.321-22.233-49.55-49.55-49.55h-133.267c0.676 5.416 1.138 10.916 1.138 16.518 0 72.854-59.275 132.129-132.129 132.129s-132.129-59.275-132.129-132.129c0-5.599 0.462-11.099 1.138-16.518h-83.717c-27.317 0-49.55 22.229-49.55 49.55v214.707c0 45.533 37.045 82.582 82.582 82.582h148.643c194.493 0 346.839-130.592 346.839-297.289zM693.675 893.936c-63.753 0-115.614-51.861-115.614-115.614v-313.807c0-34.635-26.873-62.812-60.828-65.536-15.623 12.008-32.437 22.874-50.276 32.504h28.522c27.317 0 49.55 22.229 49.55 49.55v297.289c0 81.951 66.691 148.646 148.646 148.646s148.646-66.691 148.646-148.646v-644.129h-33.032v644.129c0 63.753-51.861 115.614-115.614 115.614zM776.257 101.164h99.096v-33.032h-99.096v33.032zM990.968-30.964v0h-330.325v66.064h330.325v-66.064zM561.546-30.964h33.032v-33.032h-33.032v33.032zM495.482-30.964h33.032v-33.032h-33.032v33.032zM429.418-30.964h33.032v-33.032h-33.032v33.032zM66.064 398.454h33.032v-33.032h-33.032v33.032zM66.064 332.389h33.032v-33.032h-33.032v33.032zM297.289 183.743c-36.436 0-66.064-29.629-66.064-66.064s29.629-66.064 66.064-66.064 66.064 29.629 66.064 66.064-29.629 66.064-66.064 66.064zM297.289 84.646c-18.216 0-33.032 14.816-33.032 33.032s14.816 33.032 33.032 33.032 33.032-14.816 33.032-33.032-14.816-33.032-33.032-33.032z" />
<glyph unicode="&#xe930;" glyph-name="welding" d="M976.656 951.996c-7.344 9.202-20.75 10.686-29.968 3.328l-106.654-85.328c-5.062-4.062-8-10.188-8-16.672v-106.656h-21.376c-11.75 0-21.312-9.546-21.312-21.342v-298.655c0-27.484 17.376-50.954 41.75-60.016-3.844-33.5-19.876-53.468-52.532-66.938-35.438-14.594-90.282-21.406-181.219-22.282v213.237c0 63.312-46.186 116.014-106.686 126.202v44.454h21.376c11.75 0 21.312 9.562 21.312 21.344s-9.562 21.328-21.312 21.328h-85.374c-11.75 0-21.312-9.546-21.312-21.328s9.562-21.344 21.312-21.344h21.376v-44.454c-60.5-10.186-106.686-62.89-106.686-126.202v-213.361h-42.688v213.361c0 63.312-46.188 116.014-106.624 126.202v44.454h21.312c11.782 0 21.312 9.562 21.312 21.344s-9.53 21.328-21.312 21.328h-85.314c-11.812 0-21.374-9.546-21.374-21.328s9.562-21.344 21.374-21.344h21.312v-44.454c-60.436-10.186-106.686-62.89-106.686-126.202v-533.326c0-11.812 9.562-21.344 21.376-21.344h213.311c11.782 0 21.312 9.532 21.312 21.344v277.309h42.688v-277.309c0-11.812 9.562-21.344 21.312-21.344h213.375c11.748 0 21.31 9.532 21.31 21.344v277.403c98.124 0.938 156.189 8.532 197.439 25.532 48.312 19.876 74.312 54.594 79.062 105.782 25.25 8.562 43.5 32.468 43.5 60.61v191.999c11.78 0 21.31 9.546 21.31 21.328v42.672c0 11.782-9.532 21.328-21.31 21.328v21.328c0 11.796-9.562 21.342-21.312 21.342h-21.376v96.406l98.686 78.936c9.186 7.36 10.686 20.782 3.312 29.984zM256.035-21.344h-170.687v512.014c0 47.046 38.28 85.328 85.312 85.328 47.062 0 85.374-38.282 85.374-85.328v-512.014zM554.658-21.344h-170.625v512.014c0 47.046 38.25 85.328 85.312 85.328s85.312-38.282 85.312-85.328v-512.014zM853.345 405.31c-11.75 0-21.312 9.594-21.312 21.36h42.624c0-11.766-9.562-21.36-21.312-21.36zM874.657 469.326h-42.624v234.671h42.624v-234.671zM170.941 554.668c-0.094 0-0.156-0.016-0.282-0.016v0.016c-25.688 0-64-17.046-64-64v-469.326c0-11.812 9.562-21.344 21.374-21.344 11.75 0 21.312 9.532 21.312 21.344v469.328c0 11.468 4.438 15.452 8.75 17.828 4.938 2.718 10.906 3.454 12.812 3.5h-0.248v0.016c0.094 0 0.188-0.016 0.25-0.016 0 0 0 0 0.030 0 11.782 0 21.344 9.546 21.344 21.328 0.002 11.796-9.56 21.342-21.342 21.342zM469.596 554.668c-0.062 0-0.156-0.016-0.25-0.016v0.016c-25.718 0-64-17.046-64-64v-469.326c0-11.812 9.562-21.344 21.312-21.344 11.812 0 21.376 9.532 21.376 21.344v469.328c0 11.468 4.406 15.452 8.75 17.828 4.936 2.718 10.874 3.454 12.812 3.5 11.782 0 21.344 9.546 21.344 21.328-0.002 11.796-9.564 21.342-21.344 21.342zM469.346 511.998v0.016c0.062 0 0.124-0.016 0.218-0.016h-0.218z" />
<glyph unicode="&#xe931;" glyph-name="camera" d="M964.502 783.448h-905.004c-32.803 0-59.498-26.695-59.498-59.498v-622.521c0-32.803 26.695-59.498 59.498-59.498h905.004c32.803 0 59.498 26.695 59.498 59.498v622.521c0 32.803-26.695 59.498-59.498 59.498zM988.69 101.429c0-13.347-10.84-24.188-24.188-24.188h-905.004c-13.347 0-24.188 10.84-24.188 24.188v622.521c0 13.347 10.84 24.188 24.188 24.188h905.004c13.347 0 24.188-10.84 24.188-24.188v-622.521zM529.655 712.828c-165.5 0-300.138-134.638-300.138-300.138s134.638-300.138 300.138-300.138 300.138 134.638 300.138 300.138-134.638 300.138-300.138 300.138zM529.655 147.862c-146.026 0-264.828 118.802-264.828 264.828s118.802 264.828 264.828 264.828 264.828-118.802 264.828-264.828-118.802-264.828-264.828-264.828zM353.103 818.759h335.448c9.763 0 17.655 7.892 17.655 17.655s-7.892 17.655-17.655 17.655h-335.448c-9.763 0-17.655-7.892-17.655-17.655s7.892-17.655 17.655-17.655z" />
</font>
</defs>
</svg>
